<?xml version="1.0" encoding="UTF-8"?>
<svg width="32px" height="65px" viewBox="0 0 32 65" version="1.1" xmlns="http://www.w3.org/2000/svg" xmlns:xlink="http://www.w3.org/1999/xlink">
    <!-- Generator: Sketch 45.2 (43514) - http://www.bohemiancoding.com/sketch -->
    <title>1</title>
    <desc>Created with Sketch.</desc>
    <defs></defs>
    <g id="注册" stroke="none" stroke-width="1" fill="none" fill-rule="evenodd">
        <g id="接包方签约引导" transform="translate(-220.000000, -889.000000)">
            <g id="1" transform="translate(0.000000, 847.000000)">
                <g transform="translate(220.000000, 42.000000)">
                    <rect id="Rectangle-12" fill="#000000" x="0" y="0" width="32" height="65"></rect>
                    <path d="M16.1313274,40.9389851 L16.1171875,40.953125 C15.4609342,40.9843752 14.734379,41.1562484 13.9375,41.46875 C13.5624981,41.46875 13.2500013,41.2578146 13,40.8359375 C12.796874,40.4765607 12.6953125,40.0859396 12.6953125,39.6640625 C12.6953125,39.6171873 12.7031249,39.5507817 12.71875,39.4648438 C12.7343751,39.3789058 12.7421875,39.3125002 12.7421875,39.265625 C12.632812,38.9218733 12.578125,38.5703143 12.578125,38.2109375 C12.781251,38.0078115 13.1171852,37.8750003 13.5859375,37.8125 C13.9453143,37.7968749 14.3124981,37.7734377 14.6875,37.7421875 C14.7031251,37.2890602 14.7265623,36.6015671 14.7578125,35.6796875 C14.8046877,34.6953076 14.9296865,33.500007 15.1328125,32.09375 C15.3515636,30.4687419 15.5781238,29.304691 15.8125,28.6015625 L15.6953125,28.5546875 C15.585937,28.5859377 15.4140637,28.6406246 15.1796875,28.71875 C14.7890605,28.6249995 14.4765637,28.3906269 14.2421875,28.015625 C14.0078113,27.6406231 13.8984374,27.250002 13.9140625,26.84375 C13.6796863,26.5937487 13.5703124,26.3828134 13.5859375,26.2109375 L13.9140625,25.9296875 L14.1484375,26 C14.4296889,25.8749994 15.0312454,25.5312528 15.953125,24.96875 C16.9375049,24.374997 17.5156241,23.9921884 17.6875,23.8203125 L17.8984375,23.84375 L17.9921875,23.8203125 C18.0546878,23.9765633 18.3124977,24.3359347 18.765625,24.8984375 C19.0781266,25.3046895 19.234375,25.7187479 19.234375,26.140625 C18.4843713,27.3593811 17.8515651,29.2421748 17.3359375,31.7890625 C16.9609356,33.7109471 16.6953133,35.7187395 16.5390625,37.8125 C16.6796882,37.8281251 16.8359366,37.8359375 17.0078125,37.8359375 C17.1953134,37.8359375 17.484373,37.8242189 17.875,37.8007812 C18.265627,37.7773436 18.562499,37.765625 18.765625,37.765625 C19.0937516,37.765625 19.50781,37.7968747 20.0078125,37.859375 C19.6640608,38.0000007 19.2812521,38.1953113 18.859375,38.4453125 C18.8124998,38.5703131 18.7343755,38.7421864 18.625,38.9609375 L18.8359375,39.265625 L18.7890625,39.453125 L18.8359375,39.6640625 L18.8125,39.6640625 C18.8125,39.6953127 18.8203124,39.7734369 18.8359375,39.8984375 C18.742187,39.9140626 18.593751,40.0234365 18.390625,40.2265625 C18.3281247,40.2578127 18.242188,40.2890623 18.1328125,40.3203125 C18.0859373,40.3515627 18.0546876,40.3828123 18.0390625,40.4140625 L17.9921875,40.4140625 L17.9453125,40.390625 C17.5234354,40.5625009 17.1250019,40.7031245 16.75,40.8125 C16.6406245,40.8281251 16.5000009,40.8593748 16.328125,40.90625 L16.234375,41 C16.1747159,40.9701704 16.1403667,40.9498322 16.1313274,40.9389851 L16.1313274,40.9389851 Z" fill="#FFFFFF"></path>
                </g>
            </g>
        </g>
    </g>
</svg>