<?xml version="1.0" encoding="UTF-8"?>
<svg width="32px" height="65px" viewBox="0 0 32 65" version="1.1" xmlns="http://www.w3.org/2000/svg" xmlns:xlink="http://www.w3.org/1999/xlink">
    <!-- Generator: Sketch 45.2 (43514) - http://www.bohemiancoding.com/sketch -->
    <title>2</title>
    <desc>Created with Sketch.</desc>
    <defs></defs>
    <g id="注册" stroke="none" stroke-width="1" fill="none" fill-rule="evenodd">
        <g id="接包方签约引导" transform="translate(-220.000000, -1260.000000)">
            <g id="2" transform="translate(0.000000, 1218.000000)">
                <g transform="translate(220.000000, 42.000000)">
                    <rect id="Rectangle-12" fill="#000000" x="0" y="0" width="32" height="65"></rect>
                    <path d="M16.09375,35.8395727 L16.09375,35.8671875 L16.046875,35.890625 C16.0628995,35.8732652 16.0785245,35.8562477 16.09375,35.8395727 L16.09375,35.8395727 Z M20.8402776,38.283854 C20.8564814,38.2907985 20.8680555,38.297743 20.875,38.3046875 L20.8402776,38.283854 L20.8402776,38.283854 Z M20.8402776,38.283854 C20.820023,38.2751735 20.7925347,38.2664931 20.7578125,38.2578125 L20.640625,38.28125 C20.6249999,38.3125002 20.6249999,38.3515623 20.640625,38.3984375 C20.5937498,38.3671873 20.5156255,38.3359377 20.40625,38.3046875 C20.3124995,38.3515627 20.1640635,38.4140621 19.9609375,38.4921875 C19.8828121,38.4921875 19.7578134,38.5312496 19.5859375,38.609375 L19.515625,38.609375 L19.4453125,38.7265625 L19.375,38.75 C19.2812495,38.75 19.2421874,38.7890621 19.2578125,38.8671875 L19.2578125,38.9140625 C19.2578125,38.9609377 19.2734373,39.0351557 19.3046875,39.1367188 C19.3359377,39.2382818 19.3515625,39.3203122 19.3515625,39.3828125 L19.28125,39.4765625 C19.2968751,39.5234377 19.3359372,39.5781247 19.3984375,39.640625 L19.5625,39.6875 L19.4921875,39.828125 C19.4765624,39.8593752 19.46875,39.9062497 19.46875,39.96875 L19.46875,40.0625 C19.4218748,40.1093752 19.3984375,40.1406249 19.3984375,40.15625 L19.46875,40.203125 L19.234375,40.2265625 L19.2109375,40.2734375 L19.140625,40.3203125 L18.953125,40.3203125 C18.9062498,40.3671877 18.7031268,40.4374995 18.34375,40.53125 C18.3281249,40.5625002 18.3203125,40.5859374 18.3203125,40.6015625 L18.3671875,40.671875 C18.3203123,40.671875 18.2578129,40.6484377 18.1796875,40.6015625 L18.15625,40.5546875 L18.1328125,40.6015625 C18.1015623,40.6171876 18.0859375,40.6328124 18.0859375,40.6484375 L18.0859375,40.71875 C18.0390623,40.6874998 18.0000002,40.6406253 17.96875,40.578125 L17.9453125,40.53125 L17.6875,40.6484375 L17.6640625,40.625 C17.6640625,40.6562502 17.7187495,40.7109371 17.828125,40.7890625 L17.875,40.765625 L17.9453125,40.765625 L17.9921875,40.8359375 C17.9140621,40.8359375 17.8046882,40.8125002 17.6640625,40.765625 L17.6171875,40.8359375 C16.3671813,40.7578121 15.4765652,40.71875 14.9453125,40.71875 C14.3046843,40.71875 13.8828135,40.7578121 13.6796875,40.8359375 C13.0859345,40.8203124 12.593752,40.9531236 12.203125,41.234375 C12.0624993,40.9999988 11.9218757,40.8750001 11.78125,40.859375 C11.6562494,40.5937487 11.5078134,40.1796903 11.3359375,39.6171875 C11.3359375,39.3046859 11.2734381,38.8593779 11.1484375,38.28125 C11.2265629,37.9218732 11.4453107,37.5234397 11.8046875,37.0859375 C12.101564,36.7265607 12.398436,36.3593769 12.6953125,35.984375 C12.8359382,35.7343738 13.0703109,35.406252 13.3984375,35 C13.5234381,34.7187486 14.0312455,34.0468803 14.921875,32.984375 C15.9062549,31.8281192 16.5156238,31.0703143 16.75,30.7109375 C17.140627,30.0859344 17.4765611,29.5156276 17.7578125,29 C17.851563,28.7812489 17.9570307,28.5507825 18.0742188,28.3085938 C18.1914068,28.066405 18.3281242,27.898438 18.484375,27.8046875 C18.2656239,27.5859364 17.9296898,27.4765625 17.4765625,27.4765625 C16.8046841,27.4765625 16.1484407,27.6796855 15.5078125,28.0859375 C14.7890589,28.5546898 14.2265645,29.3124948 13.8203125,30.359375 C13.7421871,30.5468759 13.6328132,30.640625 13.4921875,30.640625 C13.1796859,30.640625 12.8359394,30.2265666 12.4609375,29.3984375 C12.1171858,28.6328087 11.9453125,28.0625019 11.9453125,27.6875 C11.9453125,27.6718749 12.0703112,27.4218774 12.3203125,26.9375 C13.1015664,25.343742 14.5156148,24.4218763 16.5625,24.171875 C16.6093752,24.171875 16.6914057,24.1562502 16.8085938,24.125 C16.9257818,24.0937498 17.0234371,24.078125 17.1015625,24.078125 C17.2265631,24.078125 17.3437495,24.1015623 17.453125,24.1484375 C17.7187513,24.1484375 17.953124,24.1874996 18.15625,24.265625 C18.1718751,24.3125002 18.2109372,24.3437499 18.2734375,24.359375 C18.4765635,24.4843756 18.7578107,24.7031234 19.1171875,25.015625 C19.4921894,25.5000024 19.8164049,26.1093713 20.0898438,26.84375 C20.3632826,27.5781287 20.5,28.2265597 20.5,28.7890625 C20.5,29.1640644 20.2656273,29.7968705 19.796875,30.6875 C19.4531233,31.296878 19.1171891,31.906247 18.7890625,32.515625 L18.6484375,32.5625 C18.539062,32.7343759 18.3632825,32.9843734 18.1210938,33.3125 L17.03125,34.7890625 C16.8906243,34.9296882 16.6953138,35.1406236 16.4453125,35.421875 C16.373864,35.5219029 16.2566775,35.6611343 16.09375,35.8395727 L16.09375,35.8203125 L16.046875,35.796875 L16.0234375,35.84375 C16.0234375,35.8593751 16.0156251,35.8828123 16,35.9140625 L16,36.03125 L15.9765625,36.0546875 L15.953125,36.0546875 L15.953125,36.1015625 L15.9296875,36.1015625 C15.8671872,36.1015625 15.8359375,36.1171873 15.8359375,36.1484375 L15.8828125,36.2421875 L15.9296875,36.265625 L15.53125,36.5 C15.3906243,36.5937505 15.2265634,36.8281231 15.0390625,37.203125 L15.1328125,37.2734375 C15.3046884,37.3359378 15.6718722,37.3828123 16.234375,37.4140625 C16.7968778,37.4453127 17.1562492,37.4453127 17.3125,37.4140625 L17.6640625,37.53125 L17.6875,37.484375 L17.7578125,37.4375 C17.8046877,37.5156254 17.9218741,37.5781248 18.109375,37.625 L18.203125,37.5546875 C18.406251,37.5859377 18.6015616,37.6015625 18.7890625,37.6015625 C18.8671879,37.6015625 18.9726556,37.6249998 19.1054688,37.671875 C19.2382819,37.7187502 19.3359372,37.7421875 19.3984375,37.7421875 L19.328125,37.7421875 L19.5625,37.859375 L19.7734375,37.859375 L19.796875,37.8125 L19.8671875,37.8125 C19.9140627,37.8125 19.9843745,37.8281248 20.078125,37.859375 L19.8671875,37.8359375 L19.8203125,37.8359375 L19.8671875,37.8359375 L19.9140625,37.859375 L19.9375,37.9296875 L20.2890625,37.953125 L20.8402776,38.283854 L20.8402776,38.283854 Z M17.453125,40.6484375 C17.453125,40.6171873 17.4453126,40.5859377 17.4296875,40.5546875 L17.4296875,40.6484375 C17.4140624,40.6796877 17.4140624,40.6953125 17.4296875,40.6953125 L17.453125,40.6484375 Z" fill="#FFFFFF"></path>
                </g>
            </g>
        </g>
    </g>
</svg>