<?xml version="1.0" encoding="UTF-8"?>
<svg width="32px" height="65px" viewBox="0 0 32 65" version="1.1" xmlns="http://www.w3.org/2000/svg" xmlns:xlink="http://www.w3.org/1999/xlink">
    <!-- Generator: Sketch 45.2 (43514) - http://www.bohemiancoding.com/sketch -->
    <title>3</title>
    <desc>Created with Sketch.</desc>
    <defs></defs>
    <g id="注册" stroke="none" stroke-width="1" fill="none" fill-rule="evenodd">
        <g id="接包方签约引导" transform="translate(-220.000000, -1631.000000)">
            <g id="3" transform="translate(0.000000, 1589.000000)">
                <g transform="translate(220.000000, 42.000000)">
                    <rect id="Rectangle-12" fill="#000000" x="0" y="0" width="32" height="65"></rect>
                    <path d="M12.109375,35.921875 L12.109375,35.9270834 C12.109375,35.9236111 12.109375,35.9192709 12.109375,35.9140625 L12.15625,35.890625 L12.109375,35.921875 Z M12.53125,36.0843339 C12.5403303,36.099157 12.552049,36.1166186 12.5664062,36.1367188 C12.6054689,36.1914065 12.679687,36.273437 12.7890625,36.3828125 C12.6484368,36.3046871 12.5625002,36.2265629 12.53125,36.1484375 C12.53125,36.1298372 12.53125,36.1084695 12.53125,36.0843339 L12.53125,36.0843339 Z M12.5107889,36.0297618 C12.5134892,36.0243612 12.5159598,36.0187308 12.5182007,36.0128708 C12.5241926,35.9972019 12.5285424,35.9798908 12.53125,35.9609375 L12.53125,35.984375 C12.5468751,35.984375 12.5703123,35.9609377 12.6015625,35.9140625 L12.625,35.9609375 L12.6015625,36.0078125 L12.5546875,36.0078125 L12.5107889,36.0297618 L12.5107889,36.0297618 Z M12.4280907,36.1063529 L12.4140625,36.1484375 L12.6953125,36.5703125 L12.8359375,36.5 C13.6796917,37.3593793 14.5234333,37.9531234 15.3671875,38.28125 C16.8359448,37.4531209 17.8593721,36.3125073 18.4375,34.859375 C18.1562486,34.6249988 17.5390673,34.5078125 16.5859375,34.5078125 C15.9453093,34.5078125 15.3750025,34.6484361 14.875,34.9296875 C14.3593724,34.7890618 14.0468755,34.2265674 13.9375,33.2421875 C13.9687502,33.1640621 13.984375,33.1015627 13.984375,33.0546875 C13.984375,32.960937 13.9609377,32.8046886 13.9140625,32.5859375 C13.8671873,32.3671864 13.8359376,32.2265628 13.8203125,32.1640625 C13.914063,31.8515609 14.1249984,31.6093759 14.453125,31.4375 C14.7343764,31.2812492 15.023436,31.1250008 15.3203125,30.96875 C15.5078134,30.8437494 15.6640619,30.7734376 15.7890625,30.7578125 C17.3984455,29.7109323 18.4140604,28.6093808 18.8359375,27.453125 C18.5859362,27.0937482 18.1796903,26.8750004 17.6171875,26.796875 C17.5859373,26.7812499 17.5312504,26.7734375 17.453125,26.7734375 C17.4218748,26.7734375 17.3632817,26.7968748 17.2773438,26.84375 C17.1914058,26.8906252 17.1406251,26.9140625 17.125,26.9140625 C16.3593712,26.9296876 15.7031277,27.3671832 15.15625,28.2265625 L15.15625,28.3203125 C15.0781246,28.3671877 14.9609383,28.6171852 14.8046875,29.0703125 C14.6796869,29.4296893 14.4843763,29.609375 14.21875,29.609375 C13.8906234,29.609375 13.6406259,29.4531266 13.46875,29.140625 C13.3281243,28.8749987 13.1875007,28.6015639 13.046875,28.3203125 C13.046875,28.1640617 12.9648446,27.9765636 12.8007812,27.7578125 C12.6367179,27.5390614 12.5546875,27.3906254 12.5546875,27.3125 C12.5546875,27.2499997 12.5781248,27.1875003 12.625,27.125 C12.6718752,26.3749963 13.0546839,25.6679721 13.7734375,25.0039062 C14.4921911,24.3398404 15.2343712,23.9765628 16,23.9140625 C16.5625028,23.8828123 16.8125003,23.8593751 16.75,23.84375 L17.546875,24.0078125 L17.6640625,23.9375 L17.875,24.1015625 L18.0859375,24.0546875 L18.2265625,24.078125 C18.9140659,24.5156272 19.50781,25.1914017 20.0078125,26.1054688 C20.507815,27.0195358 20.7578125,27.8906209 20.7578125,28.71875 C20.6796871,28.7968754 20.6171877,28.9531238 20.5703125,29.1875 C20.5078122,29.4843765 20.4609377,29.6640622 20.4296875,29.7265625 C20.1015609,30.5078164 19.8593758,30.999999 19.703125,31.203125 C19.4374987,31.5625018 19.0156279,31.8906235 18.4375,32.1875 C19.843757,32.7031276 20.546875,33.6874927 20.546875,35.140625 C20.546875,35.6875027 20.5078129,36.0859363 20.4296875,36.3359375 C20.1796862,37.0859412 19.3828192,38.0546816 18.0390625,39.2421875 C16.7578061,40.3828182 15.7109416,41.0859362 14.8984375,41.3515625 C14.789062,41.3359374 14.4687527,41.1757828 13.9375,40.8710938 C13.4062473,40.5664047 13.1250002,40.3632818 13.09375,40.2617188 C13.0624998,40.1601557 12.8281272,39.9687514 12.390625,39.6875 L12.3203125,39.7578125 L11.4296875,38.4921875 L11.4296875,38.375 C11.4296875,38.3281248 11.4414061,38.2539068 11.4648438,38.1523438 C11.4882814,38.0507807 11.5,37.9687503 11.5,37.90625 C11.5,37.8593748 11.4843752,37.8007816 11.453125,37.7304688 C11.4218748,37.6601559 11.40625,37.6015627 11.40625,37.5546875 L11.4296875,37.5078125 L11.5,37.5546875 L11.5234375,37.53125 L11.4296875,37.296875 L11.4765625,37.296875 C11.5078127,37.3281252 11.5390623,37.4062494 11.5703125,37.53125 C11.679688,37.53125 11.8046868,37.5390624 11.9453125,37.5546875 C11.8984373,37.460937 11.8281255,37.2812513 11.734375,37.015625 C11.6874998,36.9374996 11.6328128,36.8906251 11.5703125,36.875 L11.5234375,36.6875 L11.5234375,36.6640625 L11.5234375,36.6875 L11.5703125,36.6875 C11.5859376,36.6406248 11.6093748,36.5859378 11.640625,36.5234375 L11.640625,36.4765625 L11.5703125,36.4765625 L11.640625,36.40625 L11.6640625,36.3125 C11.6640625,36.2968749 11.6953122,36.3046873 11.7578125,36.3359375 L11.78125,36.3359375 L11.734375,36.1484375 C11.7500001,36.1484375 11.7968746,36.1562499 11.875,36.171875 L11.875,35.9375 C11.8593749,35.9843752 11.8281252,36.0234373 11.78125,36.0546875 L11.6875,36.1015625 L11.734375,35.9375 L11.78125,36.03125 L11.8515625,35.9375 L11.78125,35.8671875 L11.78125,35.8203125 L11.9453125,35.8203125 L11.96875,35.8671875 C11.96875,35.8203123 11.9609376,35.7734377 11.9453125,35.7265625 C11.9921877,35.7578127 12.0234374,35.7890623 12.0390625,35.8203125 C12.0078123,35.8359376 11.9921875,35.8515624 11.9921875,35.8671875 L12.015625,35.890625 L12.0859375,35.9375 L12.109375,35.921875 L12.109375,35.9270834 C12.109375,35.9340278 12.109375,35.9375 12.109375,35.9375 C12.109375,35.9687502 12.1015626,35.9999998 12.0859375,36.03125 L12.0625,36.078125 L12.0859375,36.21875 L12.109375,36.125 L12.15625,36.1015625 C12.1718751,36.1015625 12.1953123,36.1093749 12.2265625,36.125 L12.3203125,36.125 C12.3624544,36.125 12.3983805,36.1187843 12.4280907,36.1063529 L12.4280907,36.1063529 Z M12.5081121,36.0349016 C12.490361,36.0676415 12.4636873,36.0914586 12.4280907,36.1063529 L12.4375,36.078125 L12.484375,36.03125 L12.53125,36.03125 C12.53125,36.0347514 12.53125,36.0382093 12.53125,36.0416235 C12.53125,36.0567116 12.53125,36.0709484 12.53125,36.0843339 C12.5173916,36.0617107 12.509679,36.0452333 12.5081121,36.0349016 C12.5079124,36.0335845 12.5078125,36.0323673 12.5078125,36.03125 L12.5107889,36.0297618 C12.5105399,36.0302598 12.5102889,36.0307559 12.510036,36.03125 C12.5094068,36.0324793 12.5087655,36.0336965 12.5081121,36.0349016 L12.5081121,36.0349016 Z M11.78125,36.8046875 L11.5703125,36.875 L11.5703125,36.6640625 L11.78125,36.8046875 Z" fill="#FFFFFF"></path>
                </g>
            </g>
        </g>
    </g>
</svg>