<?xml version="1.0" encoding="UTF-8"?>
<svg width="32px" height="65px" viewBox="0 0 32 65" version="1.1" xmlns="http://www.w3.org/2000/svg" xmlns:xlink="http://www.w3.org/1999/xlink">
    <!-- Generator: Sketch 45.2 (43514) - http://www.bohemiancoding.com/sketch -->
    <title>4</title>
    <desc>Created with Sketch.</desc>
    <defs></defs>
    <g id="注册" stroke="none" stroke-width="1" fill="none" fill-rule="evenodd">
        <g id="接包方签约引导" transform="translate(-220.000000, -2206.000000)">
            <g id="3" transform="translate(0.000000, 2164.000000)">
                <g id="4" transform="translate(220.000000, 42.000000)">
                    <rect id="Rectangle-12" fill="#000000" x="0" y="0" width="32" height="65"></rect>
                    <path d="M21.7890625,34.296875 C21.3046851,34.2656248 21.0546876,34.25 21.0390625,34.25 L21.0625,34.2734375 C21.0625,34.3046877 21.0703124,34.3515622 21.0859375,34.4140625 L21.0625,34.34375 L21.015625,34.3203125 L20.96875,34.3203125 L20.9921875,34.4140625 C20.9140621,34.4140625 20.8046882,34.3906252 20.6640625,34.34375 L20.4765625,34.34375 L20.3828125,34.390625 C20.2578119,34.3749999 20.1015634,34.4609366 19.9140625,34.6484375 L19.9140625,34.625 C19.8515622,34.6406251 19.7812504,34.6640623 19.703125,34.6953125 L19.65625,34.8125 C19.6406249,34.8281251 19.6093752,34.8281251 19.5625,34.8125 L19.4921875,34.7421875 L19.46875,34.8359375 L19.4921875,34.859375 L19.5390625,34.8828125 L19.3984375,34.8828125 C19.2421867,34.8671874 19.1640625,34.9296868 19.1640625,35.0703125 C19.1640625,35.1171877 19.1757811,35.1562498 19.1992188,35.1875 C19.2226564,35.2187502 19.2968744,35.2499998 19.421875,35.28125 C19.5468756,35.3125002 19.6015626,35.3593747 19.5859375,35.421875 L19.65625,35.328125 L19.7265625,35.3046875 L19.796875,35.328125 L19.8671875,35.421875 L19.65625,35.5859375 L19.6796875,35.5859375 C19.6796875,35.6328127 19.6874999,35.6796873 19.703125,35.7265625 L19.7734375,35.8203125 C19.5703115,35.8359376 19.3671885,35.8749997 19.1640625,35.9375 L19.140625,35.984375 L19.140625,36.03125 C19.0624996,36.0468751 18.9453133,36.0781248 18.7890625,36.125 C18.7421873,36.1718752 18.7109376,36.2187498 18.6953125,36.265625 L18.53125,36.2421875 L18.3203125,36.3125 L18.3203125,36.2421875 L18.296875,36.21875 L18.296875,36.2421875 L18.1796875,36.3125 L18.0859375,36.4765625 L17.9453125,36.4296875 C17.7890617,36.4296875 17.5859388,36.476562 17.3359375,36.5703125 C17.2578121,36.5703125 17.1171885,36.5781249 16.9140625,36.59375 L16.8671875,36.546875 L16.7734375,36.6640625 C16.7421873,36.6328123 16.7187501,36.6015627 16.703125,36.5703125 L16.703125,36.546875 C16.3593733,37.1250029 16.1875,38.0312438 16.1875,39.265625 L16.1640625,39.125 L16.0703125,39.1484375 C16.0390623,39.2265629 16.0078127,39.4570293 15.9765625,39.8398438 C15.9453123,40.2226582 15.9335937,40.4374998 15.9414062,40.484375 C15.9492188,40.5312502 15.9335939,40.5976558 15.8945312,40.6835938 C15.8554686,40.7695317 15.8359375,40.8515621 15.8359375,40.9296875 L15.9296875,41.140625 L15.953125,41.140625 L15.953125,40.9765625 L16,41.046875 C15.9531248,41.1875007 15.9374999,41.304687 15.953125,41.3984375 C15.7343739,41.3828124 15.6093752,41.3046882 15.578125,41.1640625 L15.53125,41.140625 L15.578125,41.3984375 L15.3671875,41.3984375 C15.257812,41.1953115 15.1015635,41.0312506 14.8984375,40.90625 C14.6953115,40.7812494 14.5000009,40.664063 14.3125,40.5546875 L14.4296875,40.5546875 L14.0078125,40.1328125 L14.5,40.203125 L14.5,40.1328125 L15.15625,40.4375 C15.1718751,40.3437495 15.1718751,39.9765657 15.15625,39.3359375 L15.25,39.265625 C15.2031248,39.1874996 15.1796875,39.0937505 15.1796875,38.984375 C15.1796875,38.6874985 15.1953123,38.4140637 15.2265625,38.1640625 C15.2265625,38.1015622 15.2343749,38.0078131 15.25,37.8828125 L15.2734375,37.8359375 L15.2734375,37.859375 L15.2734375,37.8125 L15.3203125,37.859375 L15.3203125,37.5078125 C15.3203125,37.4609373 15.3437498,37.2968764 15.390625,37.015625 L15.15625,36.8984375 C13.4687416,37.0390632 12.7187491,37.109375 12.90625,37.109375 C12.7656243,37.109375 12.6562504,37.1249998 12.578125,37.15625 C11.9374968,37.3906262 11.5312509,37.5078125 11.359375,37.5078125 C11.156249,37.5078125 10.953126,37.2734398 10.75,36.8046875 C10.5781241,36.4140605 10.4921875,36.0937512 10.4921875,35.84375 C10.4921875,35.7656246 10.5234372,35.6953128 10.5859375,35.6328125 C10.5703124,35.6015623 10.507813,35.484376 10.3984375,35.28125 C10.304687,35.1406243 10.2578125,35.023438 10.2578125,34.9296875 C10.2578125,34.2421841 10.5781218,33.2421941 11.21875,31.9296875 C11.4062509,31.5390605 11.6874981,31.0703152 12.0625,30.5234375 C12.6875031,29.632808 13.0078124,29.1718752 13.0234375,29.140625 C14.8515716,26.3124859 16.3984312,24.6015655 17.6640625,24.0078125 C17.757813,24.0703128 17.8437496,24.1874991 17.921875,24.359375 C18.0312505,24.6093763 18.0937499,24.7421874 18.109375,24.7578125 C18.2968759,25.054689 18.4921865,25.3437486 18.6953125,25.625 C18.804688,25.8437511 18.859375,26.1953101 18.859375,26.6796875 C18.859375,26.8203132 18.7968756,27.0117175 18.671875,27.2539062 C18.5468744,27.496095 18.484375,27.6874993 18.484375,27.828125 C18.484375,27.9375005 18.539062,28.3124968 18.6484375,28.953125 L18.71875,29.09375 L18.6484375,29.1640625 L18.6953125,29.7265625 L18.6015625,30.03125 C18.3203111,30.3281265 18.0390639,30.8671836 17.7578125,31.6484375 L17.1484375,33.4296875 L17.359375,33.5703125 C17.4218753,33.4921871 17.5234368,33.4453126 17.6640625,33.4296875 L17.9921875,33.4296875 L17.96875,33.6640625 C18.0937506,33.6484374 18.1640624,33.640625 18.1796875,33.640625 L18.2734375,33.6640625 L18.296875,33.640625 L18.390625,33.640625 C18.7031266,33.5624996 18.8281253,33.5234375 18.765625,33.5234375 C18.7968752,33.5234375 18.8281248,33.5312499 18.859375,33.546875 L18.90625,33.6640625 L19.0703125,33.6875 L19.09375,33.59375 L19.140625,33.6171875 L19.1875,33.6875 L19.234375,33.6875 C19.2968753,33.6875 19.3867182,33.6757814 19.5039062,33.6523438 C19.6210943,33.6289061 19.7109372,33.6171875 19.7734375,33.6171875 C20.0859391,33.6171875 20.4609353,33.6718745 20.8984375,33.78125 C20.8671873,33.78125 20.8085942,33.7734376 20.7226562,33.7578125 C20.6367183,33.7421874 20.5781252,33.734375 20.546875,33.734375 L20.5,33.8515625 C20.703126,33.8828127 20.9218738,33.9531245 21.15625,34.0625 L20.7578125,34.015625 C20.8828131,34.0781253 21.2265597,34.1718744 21.7890625,34.296875 Z M16.890625,28.9296875 C16.8281247,28.9453126 16.742188,28.9765623 16.6328125,29.0234375 C16.5546871,29.117188 16.4453132,29.2499991 16.3046875,29.421875 C16.2421872,29.4531252 16.1953127,29.4921873 16.1640625,29.5390625 C16.1328123,29.5859377 16.1171875,29.6562495 16.1171875,29.75 C16.007812,29.7968752 15.8203138,29.9765609 15.5546875,30.2890625 C15.5234373,30.3203127 15.406251,30.4218741 15.203125,30.59375 C14.999999,30.7656259 14.6757835,31.2070277 14.2304688,31.9179688 C13.785154,32.6289098 13.507813,33.132811 13.3984375,33.4296875 L13.9140625,33.453125 C14.3046895,33.3906247 14.9374956,33.359375 15.8125,33.359375 C16.0468762,32.2343694 16.1640625,31.6015632 16.1640625,31.4609375 L16.234375,31.4140625 C16.2500001,31.4140625 16.2421877,31.4062501 16.2109375,31.390625 L16.234375,31.390625 C16.5156264,30.5624959 16.7343742,29.7421916 16.890625,28.9296875 Z M15.71875,37.3671875 L15.6953125,37.296875 L15.6015625,37.34375 C15.6171876,37.5156259 15.5937503,37.7265613 15.53125,37.9765625 C15.5468751,38.0234377 15.5546875,38.0781247 15.5546875,38.140625 C15.5546875,38.1718752 15.5468751,38.2343745 15.53125,38.328125 C15.5156249,38.4218755 15.5078125,38.4921873 15.5078125,38.5390625 C15.5078125,38.5859377 15.5312498,38.6406247 15.578125,38.703125 L15.6015625,38.1640625 L15.6953125,38.46875 L15.6953125,38.28125 C15.6953125,38.2499998 15.6835939,38.2070315 15.6601562,38.1523438 C15.6367186,38.097656 15.625,38.0546877 15.625,38.0234375 L15.625,37.8828125 C15.625,37.8203122 15.6406248,37.7343755 15.671875,37.625 C15.7031252,37.5156245 15.71875,37.4296878 15.71875,37.3671875 Z M16.140625,38.2578125 L16.0703125,38.375 L16.046875,39.171875 L16.140625,38.2578125 Z M16.2109375,38.7734375 C16.2109375,38.8046877 16.2031251,38.8632808 16.1875,38.9492188 C16.1718749,39.0351567 16.1640625,39.0937498 16.1640625,39.125 C16.1640625,39.0937498 16.1562501,39.0546877 16.140625,39.0078125 L16.0703125,39.0078125 L16.140625,38.515625 L16.2109375,38.6328125 L16.2109375,38.7734375 Z M15.953125,37.6484375 C15.9062498,37.6796877 15.8750001,37.7109373 15.859375,37.7421875 C15.8437499,37.7734377 15.8437499,37.8046873 15.859375,37.8359375 C15.8437499,37.9609381 15.8046878,38.1484363 15.7421875,38.3984375 L15.765625,38.4453125 L15.8359375,38.515625 C15.8046873,38.5468752 15.7812501,38.5859373 15.765625,38.6328125 L15.765625,38.6796875 L15.7890625,38.75 C15.7578123,38.8906257 15.7421875,39.0234369 15.7421875,39.1484375 L15.7890625,39.2890625 L15.7421875,39.3828125 C15.7734377,39.4453128 15.7578128,39.5312495 15.6953125,39.640625 L15.71875,39.6875 C15.7031249,39.7500003 15.7031249,39.8281245 15.71875,39.921875 L15.7890625,39.96875 C15.7734374,39.5937481 15.820312,39.0703159 15.9296875,38.3984375 C15.9140624,38.3515623 15.9218748,38.1015648 15.953125,37.6484375 Z M15.6015625,39.1015625 L15.6015625,38.703125 L15.53125,38.9375 L15.6015625,39.1015625 Z M15.578125,39.7578125 L15.578125,39.2421875 L15.4375,39.6875 L15.578125,39.7578125 Z M15.7890625,40.0625 L15.6484375,40.203125 L15.6953125,40.25 C15.6953125,40.2968752 15.7031249,40.3437498 15.71875,40.390625 L15.7421875,40.4375 L15.7890625,40.0625 Z" fill="#FFFFFF"></path>
                </g>
            </g>
        </g>
    </g>
</svg>