<?xml version="1.0" encoding="UTF-8"?>
<svg width="30px" height="30px" viewBox="0 0 30 30" version="1.1" xmlns="http://www.w3.org/2000/svg" xmlns:xlink="http://www.w3.org/1999/xlink">
    <!-- Generator: Sketch 45.2 (43514) - http://www.bohemiancoding.com/sketch -->
    <title>被雇主收藏</title>
    <desc>Created with Sketch.</desc>
    <defs></defs>
    <g id="注册" stroke="none" stroke-width="1" fill="none" fill-rule="evenodd">
        <g id="接包方签约引导" transform="translate(-895.000000, -1387.000000)" fill="#3CC8B4">
            <g id="2" transform="translate(0.000000, 1218.000000)">
                <g id="Group-13" transform="translate(871.000000, 150.000000)">
                    <path d="M51.6325505,46.3754402 C51.6325505,46.5174574 51.5174574,46.6325505 51.3754402,46.6325505 L26.1774489,46.6325505 C26.0354318,46.6325505 25.9203387,46.5174574 25.9203387,46.3754402 L25.9203387,21.1774489 C25.9203387,21.0354318 26.0354318,20.9203387 26.1774489,20.9203387 L51.3754402,20.9203387 C51.5174574,20.9203387 51.6325505,21.0354318 51.6325505,21.1774489 L51.6325505,46.3754402 Z M53.2574638,19 L24.2955733,19 C24.1322535,19 24,19.1322535 24,19.2955733 L24,48.2574638 C24,48.4206356 24.1322535,48.5528891 24.2955733,48.5528891 L53.2574638,48.5528891 C53.4206356,48.5528891 53.5528891,48.4206356 53.5528891,48.2574638 L53.5528891,19.2955733 C53.5528891,19.1322535 53.4206356,19 53.2574638,19 L53.2574638,19 Z M45.607318,34.5627123 C43.7982551,37.2768396 38.9996094,40.8221042 38.9996094,40.8221042 C38.9996094,40.8221042 34.2015495,37.2768396 32.3919007,34.5627123 C31.7244889,33.5609033 31.1268067,32.6083912 31.1268067,31.2925016 C31.1268067,29.0203653 32.8889926,27.1777091 35.0633057,27.1777091 C36.6700161,27.1777091 38.0493728,28.1854934 38.6611181,29.628173 L38.6611181,29.6210772 L38.662876,29.6210772 C38.7083858,29.7713952 38.8413994,29.8811927 38.9996094,29.8811927 C39.1584053,29.8811927 39.2914189,29.7713952 39.3367334,29.6210772 L39.3412257,29.6210772 C39.9547289,28.1826924 41.3319372,27.1777091 42.936499,27.1777091 C45.1102261,27.1777091 46.872998,29.0203653 46.872998,31.2926883 C46.872998,32.6083912 46.2753158,33.5609033 45.607318,34.5627123 M42.9366943,26 C41.3877989,26 39.9476974,26.7428138 39,27.9675789 C38.0526933,26.7424403 36.6129823,26 35.0633057,26 C32.2713876,26 30,28.3740911 30,31.2925016 C30,33.0337632 30.8135119,34.2551672 31.4674465,35.2364358 C33.3681149,38.0868763 38.146838,41.634195 38.3491905,41.7837661 C38.5443162,41.9277353 38.7722557,42 38.9996094,42 C39.2277443,42 39.4552932,41.9277353 39.6500282,41.7837661 C39.8527714,41.634195 44.6318851,38.0868763 46.5317722,35.2364358 C47.1862928,34.2551672 48,33.0337632 48,31.2925016 C48,28.3740911 45.728417,26 42.9366943,26" id="被雇主收藏"></path>
                </g>
            </g>
        </g>
    </g>
</svg>