<?xml version="1.0" encoding="UTF-8"?>
<svg width="30px" height="30px" viewBox="0 0 30 30" version="1.1" xmlns="http://www.w3.org/2000/svg" xmlns:xlink="http://www.w3.org/1999/xlink">
    <!-- Generator: Sketch 45.2 (43514) - http://www.bohemiancoding.com/sketch -->
    <title>交付质量超预期</title>
    <desc>Created with Sketch.</desc>
    <defs></defs>
    <g id="注册" stroke="none" stroke-width="1" fill="none" fill-rule="evenodd">
        <g id="接包方签约引导" transform="translate(-295.000000, -2332.000000)" fill="#3CC8B4">
            <g id="3" transform="translate(0.000000, 2164.000000)">
                <g id="Group-11" transform="translate(269.000000, 150.000000)">
                    <path d="M53.6325505,45.3754402 C53.6325505,45.5174574 53.5174574,45.6325505 53.3754402,45.6325505 L28.1774489,45.6325505 C28.0354318,45.6325505 27.9203387,45.5174574 27.9203387,45.3754402 L27.9203387,20.1774489 C27.9203387,20.0354318 28.0354318,19.9203387 28.1774489,19.9203387 L53.3754402,19.9203387 C53.5174574,19.9203387 53.6325505,20.0354318 53.6325505,20.1774489 L53.6325505,45.3754402 Z M55.2574638,18 L26.2955733,18 C26.1322535,18 26,18.1322535 26,18.2955733 L26,47.2574638 C26,47.4206356 26.1322535,47.5528891 26.2955733,47.5528891 L55.2574638,47.5528891 C55.4206356,47.5528891 55.5528891,47.4206356 55.5528891,47.2574638 L55.5528891,18.2955733 C55.5528891,18.1322535 55.4206356,18 55.2574638,18 L55.2574638,18 Z M44.7571192,29.3230983 L45.545081,26.7549632 L47.9002749,29.3230983 L44.7571192,29.3230983 Z M44.393756,30.5075102 L47.9024477,30.5075102 L42.3902708,37.0374793 C42.3902708,37.0374793 44.393756,30.5075102 44.393756,30.5075102 L44.393756,30.5075102 Z M37.6190426,30.5075102 L39.6968993,37.0374793 L34.061165,30.5075102 C34.061165,30.5075102 37.6190426,30.5075102 37.6190426,30.5075102 L37.6190426,30.5075102 Z M43.1548248,30.5075102 L41.0216588,37.4603001 L38.8594553,30.5075102 L43.1548248,30.5075102 Z M38.491055,29.3230983 L37.5149424,26.1843872 L44.4811646,26.1843872 L43.5182868,29.3230983 L38.491055,29.3230983 Z M36.4537916,26.7604941 L37.2507411,29.3230983 L34.1252647,29.3230983 C34.1252647,29.3230983 36.4537916,26.7604941 36.4537916,26.7604941 L36.4537916,26.7604941 Z M45.7250341,25.1987929 L45.7220711,25.1955336 L45.5428093,25.0000741 L45.2868057,25.0000741 C45.282855,24.9999753 45.2788056,24.9999753 45.2747561,25.0000741 L36.4531002,25.0000741 L32,29.9007855 L40.9788928,40.5456772 L49.9992676,29.8595998 L45.7250341,25.1987929 Z" id="交付质量超预期"></path>
                </g>
            </g>
        </g>
    </g>
</svg>