<?xml version="1.0" encoding="UTF-8"?>
<svg width="30px" height="30px" viewBox="0 0 30 30" version="1.1" xmlns="http://www.w3.org/2000/svg" xmlns:xlink="http://www.w3.org/1999/xlink">
    <!-- Generator: Sketch 45.2 (43514) - http://www.bohemiancoding.com/sketch -->
    <title>接受高难度项目</title>
    <desc>Created with Sketch.</desc>
    <defs></defs>
    <g id="注册" stroke="none" stroke-width="1" fill="none" fill-rule="evenodd">
        <g id="接包方签约引导" transform="translate(-295.000000, -2542.000000)" fill="#3CC8B4">
            <g id="3" transform="translate(0.000000, 2164.000000)">
                <g id="Group-11" transform="translate(269.000000, 360.000000)">
                    <path d="M53.6325505,45.3754402 C53.6325505,45.5174574 53.5174574,45.6325505 53.3754402,45.6325505 L28.1774489,45.6325505 C28.0354318,45.6325505 27.9203387,45.5174574 27.9203387,45.3754402 L27.9203387,20.1774489 C27.9203387,20.0354318 28.0354318,19.9203387 28.1774489,19.9203387 L53.3754402,19.9203387 C53.5174574,19.9203387 53.6325505,20.0354318 53.6325505,20.1774489 L53.6325505,45.3754402 Z M55.2574638,18 L26.2955733,18 C26.1322535,18 26,18.1322535 26,18.2955733 L26,47.2574638 C26,47.4206356 26.1322535,47.5528891 26.2955733,47.5528891 L55.2574638,47.5528891 C55.4206356,47.5528891 55.5528891,47.4206356 55.5528891,47.2574638 L55.5528891,18.2955733 C55.5528891,18.1322535 55.4206356,18 55.2574638,18 L55.2574638,18 Z M36.6574806,40.7724754 C36.6172726,40.7913229 36.5732951,40.8126835 36.5318305,40.8353005 C36.3965054,40.9084288 36.2308986,40.8956125 36.1083897,40.8026315 C35.9827396,40.6908029 36.0380257,40.4369897 36.0644122,40.272388 L36.8183128,35.5730743 C36.8614108,35.3169994 36.7818742,35.0556472 36.6034511,34.8669207 L33.3365485,31.4756245 C33.2247199,31.3600264 33.1053523,31.1489343 33.1556124,30.9981542 C33.2058724,30.847374 33.4307861,30.764445 33.6004137,30.7393149 L38.0660183,30.0507524 C38.3247318,30.0090366 38.5454991,29.8406654 38.6540607,29.6021815 L40.5915853,25.4243157 C40.6657188,25.2647401 40.8303205,24.9443323 41.0112566,24.9443323 C41.1921928,24.9443323 41.3567944,25.2647401 41.4296714,25.4243157 L43.3709655,29.603438 C43.4794015,29.8422989 43.7000431,30.0111726 43.959008,30.0532654 L48.425869,30.7418279 C48.5942402,30.766958 48.8656444,30.8159615 48.9184174,30.9730241 C48.9711905,31.1300868 48.8028193,31.3625394 48.6897342,31.4756245 L45.4228316,34.8681772 C45.2429007,35.0560241 45.161982,35.3176276 45.2042005,35.5743308 L45.9581011,40.1542769 C45.9844876,40.3176221 45.9392535,40.6003348 45.8048079,40.6970854 C45.715722,40.7546331 45.6118094,40.7851661 45.5057607,40.7850404 C45.351965,40.7524971 45.202944,40.7004779 45.0622158,40.6304908 L43.1284608,39.5385915 C42.9055575,39.3732359 42.5906784,39.4198521 42.4253228,39.642881 C42.2599673,39.8657843 42.3067091,40.1805378 42.5296124,40.3458933 C42.5714539,40.3770546 42.6179444,40.401305 42.6673249,40.4181422 L45.0848329,41.7512897 C45.7129577,42.0982096 46.5032968,41.8701547 46.8502168,41.2420299 C46.9915731,40.9862063 47.0424614,40.6901746 46.9947144,40.4018076 L46.1980927,35.5190447 L49.6308535,32.0008419 C49.9711139,31.6520373 50.0874659,31.1421492 49.9324137,30.6802594 C49.7769845,30.2187466 49.3771659,29.8823813 48.8958004,29.8082477 L44.2128212,29.0920421 L42.1772895,24.7470617 C41.8714572,24.0971994 41.0966987,23.8182561 40.4468364,24.1240885 C40.1730448,24.2528798 39.9527802,24.4732701 39.8238632,24.7470617 L37.7883316,29.0895291 L33.1040958,29.8057347 C32.3946754,29.9136681 31.9070273,30.5760955 32.0149608,31.2855159 C32.0559227,31.5544071 32.1801906,31.8038226 32.3702992,31.9983289 L35.80306,35.5165317 L35.0064383,40.3992946 C34.8885785,41.1078355 35.3674311,41.7776762 36.075972,41.895536 C36.3647159,41.9435344 36.6612502,41.8927717 36.9175764,41.7512897 L37.0005054,41.7060557 C37.0301588,41.696255 37.0586814,41.6835643 37.0859475,41.6683606 L38.4806636,40.886817 L40.2937945,39.8816162 L40.2937945,39.8665382 L43.8584879,37.8687016 C44.1014952,37.7434285 44.1969893,37.4448838 44.0717161,37.2018765 C43.9463173,36.9587436 43.6477727,36.8633752 43.4047654,36.9886483 C43.3945877,36.9939256 43.3845357,36.9995799 43.374735,37.0054854" id="接受高难度项目"></path>
                </g>
            </g>
        </g>
    </g>
</svg>