<?xml version="1.0" encoding="UTF-8"?>
<svg width="14px" height="14px" viewBox="0 0 14 14" version="1.1" xmlns="http://www.w3.org/2000/svg" xmlns:xlink="http://www.w3.org/1999/xlink">
    <!-- Generator: Sketch 45.2 (43514) - http://www.bohemiancoding.com/sketch -->
    <title>解释</title>
    <desc>Created with Sketch.</desc>
    <defs></defs>
    <g id="注册" stroke="none" stroke-width="1" fill="none" fill-rule="evenodd">
        <g id="接包方签约引导" transform="translate(-341.000000, -617.000000)" fill="#BCC9D0">
            <g id="Group-10" transform="translate(0.000000, 517.000000)">
                <path d="M348,113.999159 C344.139593,113.999159 341,110.859625 341,107 C341,103.139593 344.140473,100 348,100 C351.859606,100 355,103.140492 355,107 C355,110.859625 351.860485,113.999159 348,113.999159 L348,113.999159 Z M347.438215,111.147575 L348.50577,111.147575 L348.50577,110.080079 L347.438215,110.080079 L347.438215,111.147575 Z M347.495989,109.267609 C347.49247,109.142285 347.490691,109.048909 347.490691,108.986716 C347.490691,108.618684 347.543127,108.301348 347.64714,108.03381 C347.723565,107.832061 347.847149,107.629354 348.016892,107.424007 C348.141336,107.274675 348.366214,107.056034 348.690647,106.769784 C349.015158,106.483594 349.226663,106.255118 349.323598,106.085375 C349.420513,105.915572 349.469313,105.729797 349.469313,105.528048 C349.469313,105.163593 349.327117,104.842699 349.042686,104.567164 C348.758255,104.291609 348.408933,104.152913 347.995581,104.152913 C347.596482,104.152913 347.263095,104.278256 346.995556,104.528022 C346.728017,104.77777 346.552936,105.167992 346.469355,105.699551 L345.505754,105.584961 C345.592893,104.872945 345.850676,104.328033 346.279141,103.949346 C346.707547,103.570717 347.274689,103.381363 347.979569,103.381363 C348.726249,103.381363 349.321819,103.584872 349.766237,103.991107 C350.210695,104.397342 350.432953,104.888938 350.432953,105.464917 C350.432953,105.798226 350.35469,106.105786 350.198221,106.386678 C350.041792,106.667571 349.73605,107.009776 349.281817,107.412492 C348.976935,107.684488 348.776926,107.883598 348.683589,108.01246 C348.590193,108.14138 348.520023,108.288073 348.474664,108.455177 C348.429364,108.622282 348.403576,108.89244 348.396479,109.267628 L347.495989,109.267628 L347.495989,109.267609 L347.495989,109.267609 Z" id="解释"></path>
            </g>
        </g>
    </g>
</svg>