<?xml version="1.0" encoding="UTF-8"?>
<svg width="14px" height="14px" viewBox="0 0 14 14" version="1.1" xmlns="http://www.w3.org/2000/svg" xmlns:xlink="http://www.w3.org/1999/xlink">
    <!-- Generator: Sketch 45.2 (43514) - http://www.bohemiancoding.com/sketch -->
    <title>解释白</title>
    <desc>Created with Sketch.</desc>
    <defs></defs>
    <g id="注册" stroke="none" stroke-width="1" fill="none" fill-rule="evenodd">
        <g id="接包方签约引导" transform="translate(-1023.000000, -738.000000)" fill="#FFFFFF">
            <g id="Group-10" transform="translate(0.000000, 517.000000)">
                <g id="Group-5" transform="translate(850.000000, 138.000000)">
                    <path d="M179.438215,94.1475754 L180.50577,94.1475754 L180.50577,93.080079 L179.438215,93.080079 L179.438215,94.1475754 Z M179.495989,92.2676087 C179.49247,92.1422854 179.490691,92.0489088 179.490691,91.9867163 C179.490691,91.6186843 179.543127,91.3013485 179.64714,91.0338096 C179.723565,90.8320606 179.847149,90.6293536 180.016892,90.4240072 C180.141336,90.274675 180.366214,90.0560338 180.690647,89.7697844 C181.015158,89.4835937 181.226663,89.2551182 181.323598,89.0853746 C181.420513,88.9155723 181.469313,88.7297966 181.469313,88.5280476 C181.469313,88.1635934 181.327117,87.8426993 181.042686,87.567164 C180.758255,87.2916092 180.408933,87.1529129 179.995581,87.1529129 C179.596482,87.1529129 179.263095,87.2782557 178.995556,87.5280225 C178.728017,87.7777697 178.552936,88.1679924 178.469355,88.6995509 L177.505754,88.5849612 C177.592893,87.872945 177.850676,87.3280331 178.279141,86.9493456 C178.707547,86.5707167 179.274689,86.3813632 179.979569,86.3813632 C180.726249,86.3813632 181.321819,86.5848718 181.766237,86.991107 C182.210695,87.3973422 182.432953,87.8889379 182.432953,88.4649167 C182.432953,88.7982259 182.35469,89.105786 182.198221,89.3866784 C182.041792,89.6675707 181.73605,90.0097756 181.281817,90.4124916 C180.976935,90.6844881 180.776926,90.8835976 180.683589,91.0124597 C180.590193,91.1413804 180.520023,91.2880732 180.474664,91.4551774 C180.429364,91.6222817 180.403576,91.8924404 180.396479,92.2676282 L179.495989,92.2676282 L179.495989,92.2676087 L179.495989,92.2676087 Z M180,83.665758 C176.507547,83.665758 173.666618,86.5066865 173.666618,89.9991397 C173.666618,93.4906936 176.507547,96.3316221 180,96.3316221 C183.492453,96.3316221 186.333382,93.4906936 186.333382,89.9991397 C186.333382,86.5075663 183.492434,83.665758 180,83.665758 L180,83.665758 Z M180,96.9991593 C176.139593,96.9991593 173,93.8596251 173,90 C173,86.1395929 176.140473,83 180,83 C183.859606,83 187,86.1404922 187,90 C187,93.8596251 183.860485,96.9991593 180,96.9991593 L180,96.9991593 Z" id="解释白"></path>
                </g>
            </g>
        </g>
    </g>
</svg>