<?xml version="1.0" encoding="UTF-8"?>
<svg width="30px" height="30px" viewBox="0 0 30 30" version="1.1" xmlns="http://www.w3.org/2000/svg" xmlns:xlink="http://www.w3.org/1999/xlink">
    <!-- Generator: Sketch 45.2 (43514) - http://www.bohemiancoding.com/sketch -->
    <title>老雇主多次雇佣</title>
    <desc>Created with Sketch.</desc>
    <defs></defs>
    <g id="注册" stroke="none" stroke-width="1" fill="none" fill-rule="evenodd">
        <g id="接包方签约引导" transform="translate(-895.000000, -2333.000000)" fill="#3CC8B4">
            <g id="3" transform="translate(0.000000, 2164.000000)">
                <g id="Group-13" transform="translate(871.000000, 150.000000)">
                    <path d="M51.6325505,46.3754402 C51.6325505,46.5174574 51.5174574,46.6325505 51.3754402,46.6325505 L26.1774489,46.6325505 C26.0354318,46.6325505 25.9203387,46.5174574 25.9203387,46.3754402 L25.9203387,21.1774489 C25.9203387,21.0354318 26.0354318,20.9203387 26.1774489,20.9203387 L51.3754402,20.9203387 C51.5174574,20.9203387 51.6325505,21.0354318 51.6325505,21.1774489 L51.6325505,46.3754402 Z M53.2574638,19 L24.2955733,19 C24.1322535,19 24,19.1322535 24,19.2955733 L24,48.2574638 C24,48.4206356 24.1322535,48.5528891 24.2955733,48.5528891 L53.2574638,48.5528891 C53.4206356,48.5528891 53.5528891,48.4206356 53.5528891,48.2574638 L53.5528891,19.2955733 C53.5528891,19.1322535 53.4206356,19 53.2574638,19 L53.2574638,19 Z M46.38045,27.6191851 C45.3358016,26.5746694 43.9452369,26 42.4644448,26 C40.98352,26 39.592292,26.5753328 38.5477762,27.6198486 L34.6821923,31.484769 C34.4327399,31.7342215 34.4327399,32.1409086 34.6821923,32.390361 C34.8034687,32.5109739 34.9638878,32.5778484 35.134922,32.5778484 C35.3060888,32.5778484 35.4671714,32.5116373 35.5877843,32.390361 L39.4527048,28.5254405 C40.2553312,27.722814 41.3251903,27.280036 42.4637814,27.280036 C43.6023725,27.280036 44.6715681,27.7221506 45.4741946,28.5247771 C47.1345128,30.1850953 47.1345128,32.8860814 45.4741946,34.5469304 L39.0005059,41.0214152 L32.525623,34.5477265 C30.8653047,32.8874082 30.8653047,30.1856261 32.525623,28.526104 C33.3269226,27.7246717 34.3904126,27.2832205 35.5202464,27.2832205 C35.724187,27.2832205 35.9313121,27.2978161 36.1352528,27.3268746 C36.1656382,27.3312533 36.1958909,27.3332436 36.2262764,27.3332436 C36.5426033,27.3332436 36.814878,27.0962638 36.8595936,26.782458 C36.9088207,26.4325611 36.6645431,26.1080076 36.3153097,26.0587805 C36.0576306,26.0214954 35.7955729,26.0031845 35.5347093,26.0031845 C34.9492922,26.0031845 34.3739594,26.0927485 33.8239698,26.2702844 C32.98711,26.5405687 32.2451217,26.9946252 31.6192349,27.6198486 C29.4601445,29.7790717 29.4601445,33.2934319 31.6198983,35.4525223 L38.5471128,42.3798695 C38.6677257,42.5003497 38.8288083,42.5673568 38.9998424,42.5673568 C39.1710093,42.5673568 39.3314284,42.5010131 39.4527048,42.3798695 L46.3799192,35.4525223 C48.5402038,33.2929011 48.5396731,29.7790717 46.38045,27.6191851" id="老雇主多次雇佣"></path>
                </g>
            </g>
        </g>
    </g>
</svg>