<?xml version="1.0" encoding="UTF-8"?>
<svg width="30px" height="30px" viewBox="0 0 30 30" version="1.1" xmlns="http://www.w3.org/2000/svg" xmlns:xlink="http://www.w3.org/1999/xlink">
    <!-- Generator: Sketch 45.2 (43514) - http://www.bohemiancoding.com/sketch -->
    <title>屡次提前交付</title>
    <desc>Created with Sketch.</desc>
    <defs></defs>
    <g id="注册" stroke="none" stroke-width="1" fill="none" fill-rule="evenodd">
        <g id="接包方签约引导" transform="translate(-596.000000, -2332.000000)" fill="#3CC8B4">
            <g id="3" transform="translate(0.000000, 2164.000000)">
                <g id="Group-12" transform="translate(570.000000, 150.000000)">
                    <path d="M53.6325505,45.3754402 C53.6325505,45.5174574 53.5174574,45.6325505 53.3754402,45.6325505 L28.1774489,45.6325505 C28.0354318,45.6325505 27.9203387,45.5174574 27.9203387,45.3754402 L27.9203387,20.1774489 C27.9203387,20.0354318 28.0354318,19.9203387 28.1774489,19.9203387 L53.3754402,19.9203387 C53.5174574,19.9203387 53.6325505,20.0354318 53.6325505,20.1774489 L53.6325505,45.3754402 Z M55.2574638,18 L26.2955733,18 C26.1322535,18 26,18.1322535 26,18.2955733 L26,47.2574638 C26,47.4206356 26.1322535,47.5528891 26.2955733,47.5528891 L55.2574638,47.5528891 C55.4206356,47.5528891 55.5528891,47.4206356 55.5528891,47.2574638 L55.5528891,18.2955733 C55.5528891,18.1322535 55.4206356,18 55.2574638,18 L55.2574638,18 Z M36.8819645,42 C36.7314642,42 36.6562592,42 36.5057589,41.924795 C36.2800535,41.7742947 36.1296435,41.4733843 36.2800535,41.1723837 L38.5371068,34.9279298 L33.6468849,34.9279298 C33.4211795,34.9279298 33.1201789,34.7774295 33.0449739,34.5517241 C32.9697689,34.3260188 32.9697689,34.0251085 33.1954742,33.8746082 L42.8255081,24.169279 C43.0512134,23.9435737 43.5026241,23.9435737 43.7283294,24.169279 C43.9540347,24.3949843 43.9540347,24.846395 43.7283294,25.0721003 L35.2268222,33.6489028 L39.4399281,33.6489028 C39.6656335,33.6489028 39.8161338,33.7241078 39.9666341,33.9498132 C40.1170441,34.1003135 40.1170441,34.3260188 40.0418391,34.5517241 L38.4619018,38.9153304 L46.211088,31.0156439 L41.9979821,31.0156439 C41.6217764,31.0156439 41.3960711,30.7147335 41.3960711,30.4138232 C41.3960711,30.0376176 41.6969814,29.7367072 42.0731871,29.7367072 L47.8663206,29.7367072 C48.0920259,29.7367072 48.3929363,29.8871172 48.4681413,30.1128226 C48.5434366,30.3385279 48.5434366,30.6395285 48.3177313,30.7899386 L37.3333752,41.7742947 C37.1828748,41.924795 37.0324648,42 36.8819645,42" id="屡次提前交付"></path>
                </g>
            </g>
        </g>
    </g>
</svg>