<?xml version="1.0" encoding="UTF-8"?>
<svg width="30px" height="30px" viewBox="0 0 30 30" version="1.1" xmlns="http://www.w3.org/2000/svg" xmlns:xlink="http://www.w3.org/1999/xlink">
    <!-- Generator: Sketch 45.2 (43514) - http://www.bohemiancoding.com/sketch -->
    <title>您有不满</title>
    <desc>Created with Sketch.</desc>
    <defs></defs>
    <g id="注册" stroke="none" stroke-width="1" fill="none" fill-rule="evenodd">
        <g id="接包方签约引导" transform="translate(-895.000000, -1758.000000)" fill="#3CC8B4">
            <g id="3" transform="translate(0.000000, 1589.000000)">
                <g id="Group-13" transform="translate(871.000000, 150.000000)">
                    <path d="M51.6325505,46.3754402 C51.6325505,46.5174574 51.5174574,46.6325505 51.3754402,46.6325505 L26.1774489,46.6325505 C26.0354318,46.6325505 25.9203387,46.5174574 25.9203387,46.3754402 L25.9203387,21.1774489 C25.9203387,21.0354318 26.0354318,20.9203387 26.1774489,20.9203387 L51.3754402,20.9203387 C51.5174574,20.9203387 51.6325505,21.0354318 51.6325505,21.1774489 L51.6325505,46.3754402 Z M53.2574638,19 L24.2955733,19 C24.1322535,19 24,19.1322535 24,19.2955733 L24,48.2574638 C24,48.4206356 24.1322535,48.5528891 24.2955733,48.5528891 L53.2574638,48.5528891 C53.4206356,48.5528891 53.5528891,48.4206356 53.5528891,48.2574638 L53.5528891,19.2955733 C53.5528891,19.1322535 53.4206356,19 53.2574638,19 L53.2574638,19 Z M38.3374696,35.1666701 C34.741543,35.1666701 31.5534574,37.0706362 30.2325881,39.9176836 C30.0452458,40.321278 30.2703179,40.7802421 30.735162,40.9427579 C31.2000061,41.1052737 31.7285498,40.9099281 31.9158921,40.5063337 C32.9625262,38.2507129 35.4882988,36.7421747 38.3374696,36.7421747 C41.1792904,36.7421747 43.6999997,38.2430363 44.7515338,40.4901638 C44.9401828,40.8932682 45.4693798,41.0873071 45.9337339,40.9234847 C46.3979246,40.7598256 46.6215267,40.3003715 46.4328778,39.8972671 C45.1058018,37.0609995 41.9242496,35.1666701 38.3374696,35.1666701 M33.6665706,29.333367 C33.6665706,28.0446742 32.6218965,27 31.3332037,27 C30.0445108,27 29,28.0446742 29,29.333367 C29,30.6220598 30.0445108,31.666734 31.3332037,31.666734 C32.6218965,31.666734 33.6665706,30.6220598 33.6665706,29.333367 M45.3331606,27.000049 C44.0444677,27.000049 42.9997936,28.0447232 42.9997936,29.333416 C42.9997936,30.6219455 44.0444677,31.6666196 45.3331606,31.6666196 C46.6218534,31.6666196 47.6665275,30.6219455 47.6665275,29.333416 C47.6665275,28.0447232 46.6218534,27.000049 45.3331606,27.000049" id="您有不满"></path>
                </g>
            </g>
        </g>
    </g>
</svg>