<?xml version="1.0" encoding="UTF-8"?>
<svg width="30px" height="30px" viewBox="0 0 30 30" version="1.1" xmlns="http://www.w3.org/2000/svg" xmlns:xlink="http://www.w3.org/1999/xlink">
    <!-- Generator: Sketch 45.2 (43514) - http://www.bohemiancoding.com/sketch -->
    <title>抢到或想放弃</title>
    <desc>Created with Sketch.</desc>
    <defs></defs>
    <g id="注册" stroke="none" stroke-width="1" fill="none" fill-rule="evenodd">
        <g id="接包方签约引导" transform="translate(-295.000000, -1757.000000)" fill="#3CC8B4">
            <g id="3" transform="translate(0.000000, 1589.000000)">
                <g id="Group-11" transform="translate(269.000000, 150.000000)">
                    <path d="M53.6325505,45.3754402 C53.6325505,45.5174574 53.5174574,45.6325505 53.3754402,45.6325505 L28.1774489,45.6325505 C28.0354318,45.6325505 27.9203387,45.5174574 27.9203387,45.3754402 L27.9203387,20.1774489 C27.9203387,20.0354318 28.0354318,19.9203387 28.1774489,19.9203387 L53.3754402,19.9203387 C53.5174574,19.9203387 53.6325505,20.0354318 53.6325505,20.1774489 L53.6325505,45.3754402 Z M55.2574638,18 L26.2955733,18 C26.1322535,18 26,18.1322535 26,18.2955733 L26,47.2574638 C26,47.4206356 26.1322535,47.5528891 26.2955733,47.5528891 L55.2574638,47.5528891 C55.4206356,47.5528891 55.5528891,47.4206356 55.5528891,47.2574638 L55.5528891,18.2955733 C55.5528891,18.1322535 55.4206356,18 55.2574638,18 L55.2574638,18 Z M49.7755816,29.6619288 C48.9591312,28.7012234 47.8641513,28.1721512 46.6925166,28.1721512 C45.672751,28.1721512 44.3465721,28.9285125 42.6381483,30.484347 C41.4493307,31.5670827 40.5258723,32.6332528 40.4871848,32.6781138 C40.4782331,32.6885059 39.5787486,33.7269979 38.4494027,34.7555094 C36.5080307,36.5236107 35.6055624,36.7145788 35.3076891,36.7145788 C33.6796242,36.7145788 32.3551945,35.1024622 32.3551945,33.1208594 C32.3551945,31.1393594 33.6796242,29.5272428 35.3076891,29.5272428 C35.4674809,29.5272428 35.7618558,29.5794092 36.2423628,29.8327301 L35.3688072,30.1053947 C35.0115651,30.216827 34.8123656,30.5968083 34.923798,30.9540504 C35.0143432,31.2441038 35.2818632,31.4299273 35.5704761,31.4299273 C35.6373561,31.4299273 35.705265,31.4199467 35.7725566,31.3989567 L38.1156201,30.6677011 C38.4728621,30.5561658 38.6720616,30.1761846 38.5605264,29.8189425 L37.8292708,27.475879 C37.7178384,27.1186369 37.3378572,26.9194374 36.9806151,27.0309727 C36.623373,27.142405 36.4241735,27.5223863 36.5356059,27.8796284 L36.7516797,28.571682 C36.213553,28.304162 35.7351038,28.1720483 35.3076891,28.1720483 C34.1359516,28.1720483 33.0409717,28.7011205 32.2245213,29.6619288 C31.4349258,30.5909434 31,31.8193746 31,33.1208594 C31,34.422447 31.4349258,35.6508782 32.2245213,36.5798928 C33.0409717,37.5405982 34.1359516,38.0696705 35.3076891,38.0696705 C36.3273519,38.0696705 37.6534279,37.313412 39.3618516,35.7574746 C40.5507722,34.6747389 41.4742306,33.6085689 41.5129181,33.5637079 C41.5218697,33.5533157 42.4212514,32.5148237 43.5507002,31.4862094 C45.492175,29.718108 46.3945405,29.5272428 46.6925166,29.5272428 C48.3204786,29.5272428 49.6449084,31.1393594 49.6449084,33.1208594 C49.6449084,35.1024622 48.3204786,36.7145788 46.6925166,36.7145788 C46.4455751,36.7145788 45.706191,36.576806 44.1754622,35.3010444 C43.8879811,35.0615111 43.4607723,35.1003015 43.2211361,35.3877826 C42.9816028,35.6752637 43.0203932,36.1024725 43.3078743,36.3421087 C44.7026824,37.5045859 45.8098036,38.0696705 46.6924137,38.0696705 C47.8641513,38.0696705 48.9590283,37.5405982 49.7755816,36.5798928 C50.5651771,35.6508782 51,34.422447 51,33.1208594 C51.0001029,31.8194775 50.5651771,30.5910463 49.7755816,29.6619288" id="抢到或想放弃"></path>
                </g>
            </g>
        </g>
    </g>
</svg>