<?xml version="1.0" encoding="UTF-8"?>
<svg width="30px" height="30px" viewBox="0 0 30 30" version="1.1" xmlns="http://www.w3.org/2000/svg" xmlns:xlink="http://www.w3.org/1999/xlink">
    <!-- Generator: Sketch 45.2 (43514) - http://www.bohemiancoding.com/sketch -->
    <title>抢单</title>
    <desc>Created with Sketch.</desc>
    <defs></defs>
    <g id="注册" stroke="none" stroke-width="1" fill="none" fill-rule="evenodd">
        <g id="接包方签约引导" transform="translate(-295.000000, -1386.000000)" fill="#3CC8B4">
            <g id="2" transform="translate(0.000000, 1218.000000)">
                <g id="Group-11" transform="translate(269.000000, 150.000000)">
                    <path d="M53.6325505,45.3754402 C53.6325505,45.5174574 53.5174574,45.6325505 53.3754402,45.6325505 L28.1774489,45.6325505 C28.0354318,45.6325505 27.9203387,45.5174574 27.9203387,45.3754402 L27.9203387,20.1774489 C27.9203387,20.0354318 28.0354318,19.9203387 28.1774489,19.9203387 L53.3754402,19.9203387 C53.5174574,19.9203387 53.6325505,20.0354318 53.6325505,20.1774489 L53.6325505,45.3754402 Z M55.2574638,18 L26.2955733,18 C26.1322535,18 26,18.1322535 26,18.2955733 L26,47.2574638 C26,47.4206356 26.1322535,47.5528891 26.2955733,47.5528891 L55.2574638,47.5528891 C55.4206356,47.5528891 55.5528891,47.4206356 55.5528891,47.2574638 L55.5528891,18.2955733 C55.5528891,18.1322535 55.4206356,18 55.2574638,18 L55.2574638,18 Z M35.0349766,32.2715197 C35.1168397,32.333225 35.2133731,32.3618939 35.3080028,32.3618939 C35.4478756,32.3618939 35.5859565,32.2983968 35.6757707,32.177338 C35.8272902,31.9738562 35.7851828,31.6868315 35.581701,31.535872 C34.3556587,30.6233955 33.6519274,29.2237721 33.6519274,27.6971546 C33.6519274,25.0610741 35.7967175,22.9157241 38.4333579,22.9157241 C41.0699984,22.9157241 43.2154604,25.0610741 43.2154604,27.6971546 C43.2154604,28.0172157 43.1836558,28.3386207 43.1207187,28.6500587 C43.0706602,28.8982236 43.2312506,29.1400053 43.4794156,29.1901758 C43.7272446,29.2384425 43.9692502,29.0789719 44.0191967,28.8315909 C44.0945645,28.4607993 44.1323044,28.078921 44.1323044,27.6977146 C44.1323044,24.5558972 41.5758472,22 38.4339179,22 C35.2922125,22 32.7360913,24.5564572 32.7360913,27.6977146 C32.7360913,29.4900791 33.5957096,31.1999086 35.0349766,32.2715197 L35.0349766,32.2715197 Z M48.2791001,37.1896873 C48.2791001,40.5460732 47.8863589,43.1136172 42.9497134,43.1136172 C40.7126453,43.1136172 39.7297285,42.6774248 38.8670866,41.9741415 L38.8145644,41.9370735 C38.7137754,41.8759282 38.6239611,41.8068317 38.5476975,41.7304561 L33.3006217,36.5183205 C32.6145846,35.8317234 32.9694739,34.8597814 33.4404945,34.3887608 C33.6714133,34.157954 34.0623627,34.0142736 34.4613751,34.0142736 C34.8560201,34.0142736 35.2077737,34.148099 35.4510112,34.3894327 L37.3729456,36.3044239 L37.3729456,27.9578622 C37.3729456,27.1815629 38.010604,26.5503997 38.7944066,26.5503997 C39.5568194,26.5503997 40.1536023,27.1686843 40.1536023,27.9578622 L40.1536023,30.6158923 L40.165249,30.609845 L40.165249,33.3405551 C40.165249,33.5934235 40.3705227,33.7986972 40.6233911,33.7986972 C40.8763715,33.7986972 41.0814211,33.5934235 41.0814211,33.3405551 L41.0814211,30.1558465 C41.2160304,30.114411 41.3541114,30.0856301 41.4986876,30.0856301 C42.0900951,30.0856301 42.5830653,30.4521661 42.7847553,31.040438 L42.842653,31.2103235 L42.842653,34.2091324 C42.842653,34.4620008 43.0480386,34.6673864 43.301019,34.6673864 C43.5537755,34.6673864 43.7590491,34.4620008 43.7590491,34.2091324 L43.7590491,31.15041 C43.9075449,31.1009114 44.061976,31.067427 44.218311,31.067427 C44.8098305,31.067427 45.3021288,31.4338511 45.5043787,32.0221229 L45.5355113,32.113169 L45.5355113,35.110858 C45.5355113,35.3637265 45.7407849,35.5690001 45.9936534,35.5690001 C46.2466338,35.5690001 46.4517954,35.3637265 46.4517954,35.110858 L46.4517954,32.1381423 C46.5990593,32.0838282 46.7523706,32.04844 46.9381583,32.04844 C47.7016911,32.04844 48.2778682,32.653846 48.2784282,33.4571344 L48.2784282,37.1896873 L48.2791001,37.1896873 Z M46.8887717,31.1333879 C46.6473261,31.1333879 46.4213347,31.1730315 46.2001588,31.2481753 C46.1769774,31.2359687 46.153236,31.2281295 46.1281507,31.2207383 C45.7144678,30.5591145 45.0112965,30.1528228 44.218423,30.1528228 C43.9508842,30.1528228 43.6870409,30.1975059 43.4384281,30.2842965 C43.0290007,29.5952356 42.3093672,29.1712499 41.4982397,29.1712499 C41.3528795,29.1712499 41.2098711,29.1840165 41.0698864,29.2096617 L41.0698864,27.9590941 C41.0698864,26.6561162 40.0705074,25.6353475 38.7944066,25.6353475 C37.5054271,25.6353475 36.4565495,26.6776178 36.4565495,27.9590941 L36.4565495,34.0992724 L36.0972927,33.7406875 C35.6808101,33.3272286 35.0998175,33.0986615 34.4613751,33.0986615 C33.8186772,33.0986615 33.1949053,33.3392113 32.7929811,33.7418074 C31.9169007,34.6178878 31.6249485,36.1390179 32.6536683,37.1684096 L37.9018639,42.381665 C38.0221388,42.50082 38.1602197,42.6095602 38.3118512,42.7043018 C39.2964478,43.5015429 40.4692959,44.0304612 42.9490414,44.0304612 C48.7121569,44.0304612 49.1948242,40.6516777 49.1948242,37.1904712 L49.1948242,33.4584783 C49.1941523,32.1541565 48.2026124,31.1333879 46.8887717,31.1333879 L46.8887717,31.1333879 Z" id="抢单"></path>
                </g>
            </g>
        </g>
    </g>
</svg>