<?xml version="1.0" encoding="UTF-8"?>
<svg width="30px" height="30px" viewBox="0 0 30 30" version="1.1" xmlns="http://www.w3.org/2000/svg" xmlns:xlink="http://www.w3.org/1999/xlink">
    <!-- Generator: Sketch 45.2 (43514) - http://www.bohemiancoding.com/sketch -->
    <title>任务过程</title>
    <desc>Created with Sketch.</desc>
    <defs></defs>
    <g id="注册" stroke="none" stroke-width="1" fill="none" fill-rule="evenodd">
        <g id="接包方签约引导" transform="translate(-596.000000, -1757.000000)" fill="#3CC8B4">
            <g id="3" transform="translate(0.000000, 1589.000000)">
                <g id="Group-12" transform="translate(570.000000, 150.000000)">
                    <path d="M53.6325505,45.3754402 C53.6325505,45.5174574 53.5174574,45.6325505 53.3754402,45.6325505 L28.1774489,45.6325505 C28.0354318,45.6325505 27.9203387,45.5174574 27.9203387,45.3754402 L27.9203387,20.1774489 C27.9203387,20.0354318 28.0354318,19.9203387 28.1774489,19.9203387 L53.3754402,19.9203387 C53.5174574,19.9203387 53.6325505,20.0354318 53.6325505,20.1774489 L53.6325505,45.3754402 Z M55.2574638,18 L26.2955733,18 C26.1322535,18 26,18.1322535 26,18.2955733 L26,47.2574638 C26,47.4206356 26.1322535,47.5528891 26.2955733,47.5528891 L55.2574638,47.5528891 C55.4206356,47.5528891 55.5528891,47.4206356 55.5528891,47.2574638 L55.5528891,18.2955733 C55.5528891,18.1322535 55.4206356,18 55.2574638,18 L55.2574638,18 Z M48.0668964,38.7158994 C47.2056921,38.7158994 46.5075561,38.0177634 46.5075561,37.1565591 C46.5075561,36.2953549 47.2056921,35.5972189 48.0668964,35.5972189 C48.9281006,35.5972189 49.6262366,36.2953549 49.6262366,37.1565591 C49.6262366,38.0177634 48.9281006,38.7158994 48.0668964,38.7158994 M31.9558701,37.7386658 C31.9558701,36.8774615 32.654006,36.1793256 33.5152103,36.1793256 C34.3763165,36.1793256 35.0744525,36.8774615 35.0744525,37.7386658 C35.0744525,38.59987 34.3763165,39.298006 33.5152103,39.298006 C32.654006,39.298006 31.9558701,38.59987 31.9558701,37.7386658 M42.0593402,25.5152103 C42.0593402,26.3764145 41.3612042,27.0745505 40.5,27.0745505 C39.7053362,27.0745505 38.9610112,26.3123527 38.9542815,25.5152103 C38.9631166,24.5667917 39.6870107,23.9558701 40.5,23.9558701 C41.3612042,23.9558701 42.0593402,24.654006 42.0593402,25.5152103 Z M45.5517841,37.1565591 C45.5517841,37.7971704 45.7915846,38.381433 46.1859275,38.8255588 C44.7634902,40.2339825 42.8432242,41.0441299 40.7910533,41.0441299 C38.8623596,41.0441299 37.0482252,40.3290403 35.6511693,39.0663393 C35.8911658,38.6809142 36.0303226,38.2261066 36.0303226,37.7386658 C36.0303226,36.3495477 34.9042304,35.2234555 33.5152103,35.2234555 C33.4585676,35.2234555 33.4026109,35.2260034 33.3469481,35.2297274 C33.1973056,34.6277272 33.1199854,34.0058334 33.1199854,33.37316 C33.1199854,30.1423701 35.1353091,27.3068052 38.0787696,26.1957067 C38.3757027,27.2539844 39.3468605,28.0303226 40.5,28.0303226 C41.7175241,28.0303226 42.7329768,27.1651004 42.9651334,26.0159788 C46.0501026,26.9252019 48.2837654,29.7010862 48.4518315,32.9727412 C48.4653552,33.2363551 48.6900641,33.4390145 48.95358,33.4254908 C49.217194,33.4119671 49.4199513,33.1872582 49.4064276,32.9237423 C49.2124901,29.1490649 46.5758606,25.962472 42.9669954,25.0248295 C42.7388566,23.870514 41.721248,23 40.5,23 C39.2153475,23 38.1563838,23.9634159 38.0042913,25.2069094 C34.5509485,26.3837644 32.1641153,29.6443455 32.1641153,33.37316 C32.1641153,34.0881516 32.2521173,34.7916774 32.4224374,35.4726638 C31.5807347,35.8793545 31,36.7411467 31,37.7386658 C31,39.1276859 32.1260922,40.2537781 33.5152103,40.2537781 C34.0713475,40.2537781 34.5851497,40.0728742 35.0016402,39.7672192 C36.5736221,41.1918125 38.6187372,42 40.7910533,42 C43.1433913,42 45.3438328,41.0521658 46.9517799,39.4110954 C47.2879122,39.5775936 47.6662816,39.6716714 48.0668964,39.6716714 C49.4560145,39.6716714 50.5820086,38.5456773 50.5820086,37.1565591 C50.5820086,35.767441 49.4560145,34.6414469 48.0668964,34.6414469 C46.6777782,34.6414469 45.5517841,35.767441 45.5517841,37.1565591 Z" id="任务过程"></path>
                </g>
            </g>
        </g>
    </g>
</svg>