<?xml version="1.0" encoding="UTF-8"?>
<svg width="30px" height="30px" viewBox="0 0 30 30" version="1.1" xmlns="http://www.w3.org/2000/svg" xmlns:xlink="http://www.w3.org/1999/xlink">
    <!-- Generator: Sketch 45.2 (43514) - http://www.bohemiancoding.com/sketch -->
    <title>认证信息</title>
    <desc>Created with Sketch.</desc>
    <defs></defs>
    <g id="注册" stroke="none" stroke-width="1" fill="none" fill-rule="evenodd">
        <g id="接包方签约引导" transform="translate(-596.000000, -1015.000000)" fill="#3CC8B4">
            <g id="1" transform="translate(0.000000, 847.000000)">
                <g id="Group-12" transform="translate(570.000000, 150.000000)">
                    <path d="M53.6325505,45.3754402 C53.6325505,45.5174574 53.5174574,45.6325505 53.3754402,45.6325505 L28.1774489,45.6325505 C28.0354318,45.6325505 27.9203387,45.5174574 27.9203387,45.3754402 L27.9203387,20.1774489 C27.9203387,20.0354318 28.0354318,19.9203387 28.1774489,19.9203387 L53.3754402,19.9203387 C53.5174574,19.9203387 53.6325505,20.0354318 53.6325505,20.1774489 L53.6325505,45.3754402 Z M55.2574638,18 L26.2955733,18 C26.1322535,18 26,18.1322535 26,18.2955733 L26,47.2574638 C26,47.4206356 26.1322535,47.5528891 26.2955733,47.5528891 L55.2574638,47.5528891 C55.4206356,47.5528891 55.5528891,47.4206356 55.5528891,47.2574638 L55.5528891,18.2955733 C55.5528891,18.1322535 55.4206356,18 55.2574638,18 L55.2574638,18 Z M44.1371429,34.2342857 L50.3642857,34.2342857 L50.3642857,32.4592857 L44.1371429,32.4592857 L44.1371429,34.2342857 Z M44.1371429,29.7992857 L50.3642857,29.7992857 L50.3642857,28.025 L44.1371429,28.025 L44.1371429,29.7992857 Z M44.1371429,38.7007143 L50.3642857,38.7007143 L50.3642857,36.9264286 L44.1371429,36.9264286 L44.1371429,38.7007143 Z M39.2021429,30.1692857 C39.2021429,28.87 38.1792857,27.8157143 36.9192857,27.8157143 C35.6592857,27.8157143 34.6364286,28.87 34.6364286,30.1692857 C34.6364286,31.4678571 35.6592857,32.5221429 36.9192857,32.5221429 C38.1792857,32.5221429 39.2021429,31.4678571 39.2021429,30.1692857 L39.2021429,30.1692857 Z M43.0078571,38.7964286 C43.0078571,39.23 42.6671429,39.5807143 42.2464286,39.5807143 C41.8264286,39.5807143 41.4857143,39.23 41.4857143,38.7964286 C41.4857143,36.1985714 39.44,34.0907143 36.9192857,34.0907143 C34.3985714,34.0907143 32.3528571,36.1985714 32.3528571,38.7964286 C32.3528571,39.23 32.0121429,39.5807143 31.5914286,39.5807143 C31.1714286,39.5807143 30.8307143,39.23 30.8307143,38.7964286 C30.8307143,36.2571429 32.3014286,34.0821429 34.4071429,33.0942857 C33.5826786,32.3455357 33.1130357,31.2830357 33.1142857,30.1692857 C33.1142857,28.0028571 34.8171429,26.2471429 36.9192857,26.2471429 C39.0214286,26.2471429 40.7242857,28.0028571 40.7242857,30.1692857 C40.7257143,31.2832143 40.2557143,32.3457143 39.4307143,33.0942857 C41.5364286,34.0821429 43.0078571,36.2571429 43.0078571,38.7964286 Z" id="认证信息"></path>
                </g>
            </g>
        </g>
    </g>
</svg>