<?xml version="1.0" encoding="UTF-8"?>
<svg width="30px" height="30px" viewBox="0 0 30 30" version="1.1" xmlns="http://www.w3.org/2000/svg" xmlns:xlink="http://www.w3.org/1999/xlink">
    <!-- Generator: Sketch 45.2 (43514) - http://www.bohemiancoding.com/sketch -->
    <title>入驻专家库</title>
    <desc>Created with Sketch.</desc>
    <defs></defs>
    <g id="注册" stroke="none" stroke-width="1" fill="none" fill-rule="evenodd">
        <g id="接包方签约引导" transform="translate(-596.000000, -1386.000000)" fill="#3CC8B4">
            <g id="2" transform="translate(0.000000, 1218.000000)">
                <g id="Group-12" transform="translate(570.000000, 150.000000)">
                    <path d="M53.6325505,45.3754402 C53.6325505,45.5174574 53.5174574,45.6325505 53.3754402,45.6325505 L28.1774489,45.6325505 C28.0354318,45.6325505 27.9203387,45.5174574 27.9203387,45.3754402 L27.9203387,20.1774489 C27.9203387,20.0354318 28.0354318,19.9203387 28.1774489,19.9203387 L53.3754402,19.9203387 C53.5174574,19.9203387 53.6325505,20.0354318 53.6325505,20.1774489 L53.6325505,45.3754402 Z M55.2574638,18 L26.2955733,18 C26.1322535,18 26,18.1322535 26,18.2955733 L26,47.2574638 C26,47.4206356 26.1322535,47.5528891 26.2955733,47.5528891 L55.2574638,47.5528891 C55.4206356,47.5528891 55.5528891,47.4206356 55.5528891,47.2574638 L55.5528891,18.2955733 C55.5528891,18.1322535 55.4206356,18 55.2574638,18 L55.2574638,18 Z M37.5,29.5718227 C37.5,27.6806983 39.0701132,26.1428571 41.0004143,26.1428571 C42.9306233,26.1428571 44.5,27.6807859 44.5,29.5718227 C44.5,31.4621588 42.9306233,33 41.0004143,33 C39.0701132,33 37.5,31.4621588 37.5,29.5718227 M45.5645025,29.6150051 C45.5651985,27.0704021 43.5165793,25 41,25 C38.4826378,25 36.4346275,27.0704021 36.4346275,29.6156136 C36.4346275,31.5095487 37.5700331,33.1394785 39.1879272,33.8496933 C38.9266735,33.9163683 38.6639407,33.9948657 38.400599,34.0921399 C35.731339,35.0780084 34,37.7045861 34,40.579 L34,41 L35.0206434,41 C35.0177725,40.4063578 35.1015512,39.57392 35.1015512,39.57392 C35.2914669,37.360171 37.9872735,34.4277344 41,34.4277344 C44.0126395,34.4277344 46.3947821,37.2595935 46.8767487,39.5731377 C46.8767487,39.5731377 47.0318654,40.1948581 47.0246446,41 L48,41 L48,40.6922692 C48,37.5321178 45.4447068,34.6590947 42.876538,33.8143999 C44.4586761,33.0888855 45.5645025,31.4828613 45.5645025,29.6150051 Z M41.8058587,35.388434 L40.1199324,35.388434 C39.9486341,35.4997039 39.5393105,35.8634173 39.4785862,35.9580836 C39.4173399,36.0533585 39.4233427,36.1399403 39.4965077,36.2198286 C39.6914402,36.4385231 40.2025926,37.0439453 40.3392533,37.1923969 C40.2906217,37.3349615 39.9299297,38.3275235 39.843976,38.6039596 C39.7578484,38.8803088 39.5320027,39.7288011 39.5320027,39.9441532 C39.5320027,40.1595052 39.9353235,40.4551253 40.0826104,40.5737842 C40.2292884,40.6930516 40.6397117,41 41,41 C41.3602883,41 41.7386095,40.6982674 41.8972931,40.5957774 C42.0558897,40.4932005 42.4652134,40.1349981 42.4652134,39.9676242 C42.4652134,39.8002502 42.2321505,39.0282833 42.117223,38.7105353 C42.0022956,38.3927874 41.652381,37.4177362 41.5852328,37.2397735 C41.7206692,37.0790551 42.2871263,36.499349 42.5019264,36.2904155 C42.5814956,36.2130194 42.5811812,36.0966494 42.5199349,35.9940725 C42.4585146,35.8913217 41.9766349,35.4997039 41.8058587,35.388434 Z" id="入驻专家库"></path>
                </g>
            </g>
        </g>
    </g>
</svg>