<?xml version="1.0" encoding="UTF-8"?>
<svg width="30px" height="30px" viewBox="0 0 30 30" version="1.1" xmlns="http://www.w3.org/2000/svg" xmlns:xlink="http://www.w3.org/1999/xlink">
    <!-- Generator: Sketch 45.2 (43514) - http://www.bohemiancoding.com/sketch -->
    <title>收入与佣金</title>
    <desc>Created with Sketch.</desc>
    <defs></defs>
    <g id="注册" stroke="none" stroke-width="1" fill="none" fill-rule="evenodd">
        <g id="接包方签约引导" transform="translate(-596.000000, -1967.000000)" fill="#3CC8B4">
            <g id="3" transform="translate(0.000000, 1589.000000)">
                <g id="Group-12" transform="translate(570.000000, 360.000000)">
                    <path d="M53.6325505,45.3754402 C53.6325505,45.5174574 53.5174574,45.6325505 53.3754402,45.6325505 L28.1774489,45.6325505 C28.0354318,45.6325505 27.9203387,45.5174574 27.9203387,45.3754402 L27.9203387,20.1774489 C27.9203387,20.0354318 28.0354318,19.9203387 28.1774489,19.9203387 L53.3754402,19.9203387 C53.5174574,19.9203387 53.6325505,20.0354318 53.6325505,20.1774489 L53.6325505,45.3754402 Z M55.2574638,18 L26.2955733,18 C26.1322535,18 26,18.1322535 26,18.2955733 L26,47.2574638 C26,47.4206356 26.1322535,47.5528891 26.2955733,47.5528891 L55.2574638,47.5528891 C55.4206356,47.5528891 55.5528891,47.4206356 55.5528891,47.2574638 L55.5528891,18.2955733 C55.5528891,18.1322535 55.4206356,18 55.2574638,18 L55.2574638,18 Z M48.8968197,39.6038096 C48.8968197,40.3921592 48.2954549,40.8750963 47.6530961,40.8750963 C42.9785919,40.8877099 37.8157783,40.8868923 33.1416246,40.8756802 C32.5576619,40.8756802 31.9636551,40.2753666 31.9636551,39.5454133 C31.9559468,37.0085629 31.9544285,34.296874 31.9644727,31.7602571 C31.9644727,30.7275776 32.7036526,30.323125 33.3942468,30.323125 C34.0467667,30.323125 45.0802735,30.3148328 47.4175255,30.3226579 C48.5516978,30.3263952 48.8931991,30.6650935 48.8978708,31.811529 C48.9080318,34.3481459 48.9096668,37.0669591 48.8968197,39.6038096 M33.4163206,28.0499921 C33.4403799,27.1932021 34.0078747,27.0029471 34.4750448,27.0029471 C37.7239794,27.0023631 43.0998226,27.0024799 46.3488739,27.0029471 C46.6798639,27.0029471 47.2049631,27.2463427 47.2049631,27.9829532 C47.2049631,28.3147607 47.200525,28.4939205 47.206715,29.2968691 L33.4163206,29.2968691 C33.4044078,28.7201476 33.4044078,28.4719635 33.4163206,28.0499921 M35.1441492,24.8394823 C35.1564125,24.2174453 35.6623577,23.962604 36.1490321,23.962604 C38.5143144,23.9571148 42.1536863,23.9596842 44.5192022,23.9614361 C45.0252642,23.9614361 45.5319102,24.1775023 45.5319102,24.7928821 C45.5319102,25.3456611 45.5362315,25.3843194 45.5319102,25.9901223 L35.1441492,25.9901223 C35.1416966,25.3477634 35.1367913,25.2091306 35.1441492,24.8394823 M48.2169704,29.2968691 C48.2169704,28.6623353 48.2297008,28.3057677 48.2169704,27.4719859 C48.207627,26.8629128 47.5660856,25.9901223 46.5519761,25.9901223 C46.5581661,25.3989185 46.5630714,25.2675269 46.5519761,24.5241425 C46.5434503,23.9448515 46.1542976,23 44.6164903,23 L36.1101402,23 C34.5528287,23 34.0558765,23.8660166 34.0558765,24.6397671 C34.0558765,25.1406902 34.048285,25.2705635 34.0558765,25.9901223 C32.9192516,26.1022431 32.5365225,27.0861034 32.5284638,27.7712083 C32.5177189,28.6811389 32.525544,28.6797374 32.5284638,29.2968691 C31.7619544,29.4938981 31,30.1874121 31,31.3699364 L31,39.6330077 C31,40.9566174 31.9445012,41.8240355 32.8204451,41.8240355 L48.0618699,41.8240355 C48.6492195,41.8240355 49.8239187,41.2097069 49.8239187,39.8665928 L49.8239187,31.2895832 C49.8239187,30.3114458 48.967012,29.2968691 48.2169704,29.2968691 M42.5404448,34.7234003 L41.52762,34.7234003 L42.8095348,33.3465332 C42.9475835,33.1972723 42.9475835,32.9619354 42.8095348,32.8104555 L42.5615842,32.539964 C42.4263385,32.3914039 42.161453,32.3914039 42.0262073,32.5378617 L40.409098,34.2740994 L38.7949084,32.53938 C38.6582612,32.3893016 38.3947772,32.3922214 38.2595315,32.53938 L38.0145008,32.8076525 C37.8763352,32.9577309 37.8763352,33.1922502 38.0145008,33.3429126 L39.2991018,34.7234003 L38.283474,34.7234003 C38.0685757,34.7236339 37.8945549,34.8980051 37.8946716,35.1129034 L37.8946716,35.4987859 C37.8943213,35.7135673 38.0681085,35.8879386 38.28289,35.8882889 L38.283474,35.8882889 L39.8287559,35.8882889 L39.8287559,36.2714852 L38.283474,36.2714852 C38.0685757,36.2718356 37.8945549,36.4460901 37.8946716,36.6609883 L37.8946716,37.0483891 C37.8945549,37.262937 38.0684589,37.4370746 38.2831236,37.4371914 L38.283474,37.4371914 L39.8287559,37.4371914 L39.8287559,38.5957733 C39.8288727,38.8105548 40.0027768,38.9846924 40.2175582,38.9852764 L40.6063605,38.9852764 C40.821142,38.9846924 40.9950461,38.8105548 40.9951629,38.5957733 L40.9951629,37.4371914 L42.5404448,37.4371914 C42.7551094,37.4371914 42.9291303,37.2632874 42.9292471,37.0486227 L42.9292471,37.0483891 L42.9292471,36.6609883 C42.9293639,36.4460901 42.755343,36.2718356 42.5404448,36.2714852 L40.9951629,36.2714852 L40.9951629,35.8882889 L42.5404448,35.8882889 C42.7552262,35.8882889 42.9292471,35.7141513 42.9292471,35.4993698 L42.9292471,35.4989027 L42.9292471,35.1129034 C42.9293639,34.8980051 42.755343,34.7236339 42.5404448,34.7234003" id="收入与佣金"></path>
                </g>
            </g>
        </g>
    </g>
</svg>