<?xml version="1.0" encoding="UTF-8"?>
<svg width="30px" height="30px" viewBox="0 0 30 30" version="1.1" xmlns="http://www.w3.org/2000/svg" xmlns:xlink="http://www.w3.org/1999/xlink">
    <!-- Generator: Sketch 45.2 (43514) - http://www.bohemiancoding.com/sketch -->
    <title>填写经验</title>
    <desc>Created with Sketch.</desc>
    <defs></defs>
    <g id="注册" stroke="none" stroke-width="1" fill="none" fill-rule="evenodd">
        <g id="接包方签约引导" transform="translate(-895.000000, -1016.000000)" fill="#3CC8B4">
            <g id="1" transform="translate(0.000000, 847.000000)">
                <g id="Group-13" transform="translate(871.000000, 150.000000)">
                    <path d="M51.6325505,46.3754402 C51.6325505,46.5174574 51.5174574,46.6325505 51.3754402,46.6325505 L26.1774489,46.6325505 C26.0354318,46.6325505 25.9203387,46.5174574 25.9203387,46.3754402 L25.9203387,21.1774489 C25.9203387,21.0354318 26.0354318,20.9203387 26.1774489,20.9203387 L51.3754402,20.9203387 C51.5174574,20.9203387 51.6325505,21.0354318 51.6325505,21.1774489 L51.6325505,46.3754402 Z M53.2574638,19 L24.2955733,19 C24.1322535,19 24,19.1322535 24,19.2955733 L24,48.2574638 C24,48.4206356 24.1322535,48.5528891 24.2955733,48.5528891 L53.2574638,48.5528891 C53.4206356,48.5528891 53.5528891,48.4206356 53.5528891,48.2574638 L53.5528891,19.2955733 C53.5528891,19.1322535 53.4206356,19 53.2574638,19 L53.2574638,19 Z M31.2980137,41.2034063 L45.8954398,41.2034063 L45.8954398,29.9821482 L31.2980137,29.9821482 L31.2980137,41.2034063 Z M35.965689,27.3478573 C35.965689,26.5804196 36.1103775,26.2743121 36.8273136,26.2743121 L40.3116106,26.2743121 C41.0287016,26.2743121 41.2279194,26.5804196 41.2279194,27.3478573 L41.2279194,28.5952145 L35.965689,28.5932007 L35.965689,27.3478573 Z M46.8740235,28.9288965 C46.6610185,28.7052026 46.3818658,28.5932007 46.102713,28.5932007 L42.5270175,28.5932007 L42.5270175,26.3887926 C42.5270175,25.6215099 41.9450104,25 41.2279194,25 L35.965689,25 C35.248598,25 34.6665909,25.6215099 34.6665909,26.3887926 L34.6665909,28.5932007 L31.0907405,28.5932007 C30.8115878,28.5932007 30.532435,28.7052026 30.31943,28.9288965 C30.106425,29.1527454 30,29.4459952 30,29.739245 L30,41.5095139 C30,41.8029186 30.106425,42.0961684 30.31943,42.3198623 C30.532435,42.5437112 30.8115878,42.6555582 31.0907405,42.6555582 L46.102713,42.6555582 C46.3818658,42.6555582 46.6610185,42.5437112 46.8740235,42.3198623 C47.0870285,42.0961684 47.1936085,41.8029186 47.1936085,41.5095139 L47.1936085,29.739245 C47.1936085,29.4459952 47.0870285,29.1527454 46.8740235,28.9288965 Z M33.0423775,33.6266249 L44.151169,33.6266249 C44.4197877,33.6266249 44.6374401,33.4673746 44.6374401,33.2707904 L44.6374401,33.2080507 C44.6374401,33.0114665 44.4197877,32.8520613 44.151169,32.8520613 L33.0423775,32.8520613 C32.7739137,32.8520613 32.5562614,33.0114665 32.5562614,33.2080507 L32.5562614,33.2707904 C32.5562614,33.4673746 32.7739137,33.6266249 33.0423775,33.6266249" id="填写经验"></path>
                </g>
            </g>
        </g>
    </g>
</svg>