<?xml version="1.0" encoding="UTF-8"?>
<svg width="30px" height="30px" viewBox="0 0 30 30" version="1.1" xmlns="http://www.w3.org/2000/svg" xmlns:xlink="http://www.w3.org/1999/xlink">
    <!-- Generator: Sketch 45.2 (43514) - http://www.bohemiancoding.com/sketch -->
    <title>完善资料</title>
    <desc>Created with Sketch.</desc>
    <defs></defs>
    <g id="注册" stroke="none" stroke-width="1" fill="none" fill-rule="evenodd">
        <g id="接包方签约引导" transform="translate(-295.000000, -1015.000000)" fill="#3CC8B4">
            <g id="1" transform="translate(0.000000, 847.000000)">
                <g id="Group-11" transform="translate(269.000000, 150.000000)">
                    <path d="M53.63258,45.5233008 C53.63258,45.665318 53.5174869,45.7804111 53.3754698,45.7804111 L28.1774785,45.7804111 C28.0354613,45.7804111 27.9203682,45.665318 27.9203682,45.5233008 L27.9203682,20.3253095 C27.9203682,20.1832924 28.0354613,20.0681993 28.1774785,20.0681993 L53.3754698,20.0681993 C53.5174869,20.0681993 53.63258,20.1832924 53.63258,20.3253095 L53.63258,45.5233008 Z M55.2574934,18.1478606 L26.2956029,18.1478606 C26.1322831,18.1478606 26.0000296,18.2801141 26.0000296,18.4434339 L26.0000296,47.4053244 C26.0000296,47.5684962 26.1322831,47.7007497 26.2956029,47.7007497 L55.2574934,47.7007497 C55.4206652,47.7007497 55.5529187,47.5684962 55.5529187,47.4053244 L55.5529187,18.4434339 C55.5529187,18.2801141 55.4206652,18.1478606 55.2574934,18.1478606 L55.2574934,18.1478606 Z M35.2045333,40.6813431 L32.9066657,38.3834754 L33.6608361,35.639733 L34.0473891,35.2531799 L38.3358644,39.5415072 L37.9493114,39.9280603 L35.2045333,40.6813431 Z M32.0362187,41.5503108 L32.6107965,39.4598474 L34.1275697,40.9766205 L32.0362187,41.5503108 Z M45.2528411,24.1480276 L49.5414643,28.4365029 L39.6017405,38.2038829 L35.3132653,33.9155555 L45.2528411,24.1480276 Z M39.4079462,40.6135891 L40.0942147,39.9276165 L51.0301299,28.9921451 C51.5039643,28.5184586 51.5039643,27.7505303 51.0301299,27.2768438 L46.3126444,22.5595062 C45.8389579,22.0858197 45.0710295,22.0858197 44.597343,22.5595062 L33.6612799,33.4948296 L32.9753073,34.1809502 L32.4711463,34.6849632 C32.3489523,34.8071572 32.2585643,34.9490264 32.1995384,35.1000676 C32.1964318,35.1080561 32.193621,35.1157487 32.1906623,35.1235892 C32.1696556,35.1805441 32.1532349,35.2388303 32.1411043,35.2977082 L30.237926,42.4046329 C30.1644025,42.6794954 30.251536,42.9592396 30.4416319,43.1443058 C30.6269939,43.3345496 30.9065903,43.421831 31.1813048,43.3480117 L38.3062775,41.4445376 C38.345776,41.4361053 38.3849787,41.4253061 38.4235896,41.4127316 C38.4624964,41.4011927 38.4997759,41.386991 38.5355761,41.3701265 C38.6693089,41.3111006 38.7946095,41.2272217 38.9040811,41.1177501 L39.4079462,40.6135891 Z" id="完善资料"></path>
                </g>
            </g>
        </g>
    </g>
</svg>