<?xml version="1.0" encoding="UTF-8"?>
<svg width="30px" height="30px" viewBox="0 0 30 30" version="1.1" xmlns="http://www.w3.org/2000/svg" xmlns:xlink="http://www.w3.org/1999/xlink">
    <!-- Generator: Sketch 45.2 (43514) - http://www.bohemiancoding.com/sketch -->
    <title>需求新增</title>
    <desc>Created with Sketch.</desc>
    <defs></defs>
    <g id="注册" stroke="none" stroke-width="1" fill="none" fill-rule="evenodd">
        <g id="接包方签约引导" transform="translate(-295.000000, -1967.000000)" fill="#3CC8B4">
            <g id="3" transform="translate(0.000000, 1589.000000)">
                <g id="Group-11" transform="translate(269.000000, 360.000000)">
                    <path d="M53.6325505,45.3754402 C53.6325505,45.5174574 53.5174574,45.6325505 53.3754402,45.6325505 L28.1774489,45.6325505 C28.0354318,45.6325505 27.9203387,45.5174574 27.9203387,45.3754402 L27.9203387,20.1774489 C27.9203387,20.0354318 28.0354318,19.9203387 28.1774489,19.9203387 L53.3754402,19.9203387 C53.5174574,19.9203387 53.6325505,20.0354318 53.6325505,20.1774489 L53.6325505,45.3754402 Z M55.2574638,18 L26.2955733,18 C26.1322535,18 26,18.1322535 26,18.2955733 L26,47.2574638 C26,47.4206356 26.1322535,47.5528891 26.2955733,47.5528891 L55.2574638,47.5528891 C55.4206356,47.5528891 55.5528891,47.4206356 55.5528891,47.2574638 L55.5528891,18.2955733 C55.5528891,18.1322535 55.4206356,18 55.2574638,18 L55.2574638,18 Z M49.9294797,36.17532 L48.6091257,36.17532 L47.2887716,30.7052817 L45.7797955,36.17532 L44.3651305,36.17532 L42.3845994,29.2906167 L43.4220204,29.2906167 L45.1196185,34.9492769 L45.2139295,34.9492769 L46.7229056,29.2906167 L47.8546376,29.2906167 L49.3636137,35.2322099 L51.1555228,29.2906167 L52.0986328,29.2906167 L49.9294797,36.17532 Z M37.6690492,32.2142578 L41.3471784,32.2142578 L41.3471784,33.1573679 L37.6690492,33.1573679 L37.6690492,33.3459899 C37.6690492,34.5720329 38.0462932,35.1378989 38.8007813,35.1378989 L41.4414894,35.1378989 L41.4414894,36.081009 L38.8007813,36.081009 C38.2349152,36.081009 37.7633602,35.892387 37.3861162,35.4208319 C37.0088722,34.9492769 36.8202502,34.1947889 36.8202502,33.3459899 L36.8202502,31.7427028 C36.8202502,30.1101416 37.8640089,29.2906167 38.8950923,29.2906167 L41.4414894,29.2906167 L41.4414894,30.2337267 L38.9894033,30.2337267 C37.6124626,30.2337267 37.6690492,32.0256358 37.6690492,32.2142578 L37.6690492,32.2142578 Z M35.3112741,36.17532 L33.802298,36.17532 L30.8786569,30.4223487 L30.8786569,36.17532 L29.9355469,36.17532 L29.9355469,29.2906167 L31.2559009,29.2906167 L34.3665042,35.4146451 L34.3681641,29.2906167 L35.3112741,29.2906167 L35.3112741,36.17532 Z" id="需求新增"></path>
                </g>
            </g>
        </g>
    </g>
</svg>