<?xml version="1.0" encoding="UTF-8"?>
<svg width="30px" height="30px" viewBox="0 0 30 30" version="1.1" xmlns="http://www.w3.org/2000/svg" xmlns:xlink="http://www.w3.org/1999/xlink">
    <!-- Generator: Sketch 45.2 (43514) - http://www.bohemiancoding.com/sketch -->
    <title>更多</title>
    <desc>Created with Sketch.</desc>
    <defs></defs>
    <g id="注册" stroke="none" stroke-width="1" fill="none" fill-rule="evenodd">
        <g id="接包方签约引导" transform="translate(-897.000000, -1967.000000)" fill="#BCC9D0">
            <g id="3" transform="translate(0.000000, 1589.000000)">
                <g id="Group-12" transform="translate(871.000000, 360.000000)">
                    <path d="M53.6325505,45.3754402 C53.6325505,45.5174574 53.5174574,45.6325505 53.3754402,45.6325505 L28.1774489,45.6325505 C28.0354318,45.6325505 27.9203387,45.5174574 27.9203387,45.3754402 L27.9203387,20.1774489 C27.9203387,20.0354318 28.0354318,19.9203387 28.1774489,19.9203387 L53.3754402,19.9203387 C53.5174574,19.9203387 53.6325505,20.0354318 53.6325505,20.1774489 L53.6325505,45.3754402 Z M41.7,32 L41.7,24 L40,24 L40,32 L32,32 L32,33.7 L40,33.7 L40,41 L41.7,41 L41.7,33.7 L49,33.7 L49,32 L41.7,32 Z M55.2574638,18 C55.4206356,18 55.5528891,18.1322535 55.5528891,18.2955733 L55.5528891,47.2574638 C55.5528891,47.4206356 55.4206356,47.5528891 55.2574638,47.5528891 L26.2955733,47.5528891 C26.1322535,47.5528891 26,47.4206356 26,47.2574638 L26,18.2955733 C26,18.1322535 26.1322535,18 26.2955733,18 L55.2574638,18 Z" id="更多"></path>
                </g>
            </g>
        </g>
    </g>
</svg>